<svg viewBox="0 0 1080 1080" xmlns="http://www.w3.org/2000/svg"><path d="m588 852.5-.2.3h-.5l-.3.2h-.2l-.3.3v.2l-.2.3v.2l-.3.3v1l-.2.2v.8l-.3.2v.8l-.2.2v1l-.3.3v1.5l-.2.2v1l-.3.3v.7l-.2.3v1l-.3.2v1.3l-.2.2v1.3l-.3.2v.8l-.2.2v1l-.3.3v1.2l-.2.3v1l-.3.2v.8l-.2.2v1l-.3.3v1.5l-.2.2v1.3l-.3.2v1l-.2.3v1l-.3.2v1l-.2.3v1l-.3.2v.8l-.2.2v.8l-.3.2v1l-.2.3v1l-.3.2v1.3l-.2.2v1l-.3.3v1l-.2.2v1l-.3.3v1l-.2.2v.8l-.3.2v1l-.2.3v1l-.3.2v1l.3.3v.2l.2.3h5l.3-.3h.2l.5-.5v-.2l.3-.3v-.7l.2-.3v-1l.3-.2v-.8l.2-.2v-1l.3-.3v-1l.2-.2v-.3l1-1h.8l.2-.2h4.3l.2.2h3.8l.2.3h.3l1 1v.5l.2.2v1l.3.3v1.2l.2.3v1.2l.3.3v.7l.2.3v.5l.3.2h.2l.3.3h5l.5-.5v-.3l.2-.2v-.8l-.2-.2v-1.3l-.3-.2v-1l-.2-.3v-.7l-.3-.3v-1l-.2-.2v-1l-.3-.3v-1l-.2-.2v-.8l-.3-.2V887l-.2-.2v-1l-.3-.3v-1l-.2-.2v-.5l-.3-.3v-1.2l-.2-.3v-1.2l-.3-.3v-.7l-.2-.3v-.5l-.3-.2v-.8l-.2-.2v-1.3l-.3-.2V875l-.2-.2v-.8l-.3-.2v-1l-.2-.3V871l-.3-.2v-.8l-.2-.2v-.8l-.3-.2v-.8l-.2-.2v-1.3l-.3-.2v-1l-.2-.3v-.7l-.3-.3v-.7l-.2-.3v-1.5l-.3-.2V860l-.2-.2v-.8l-.3-.2v-.5l-.2-.3v-1.2l-.3-.3v-1l-.2-.2v-.8l-.3-.2v-.3l-.2-.2v-.3l-.8-.7h-.5l-.2-.3h-6zm2.8 9.5.2-.2h.8l.5.5v.2l.2.3v.7l.3.3v1l.2.2v1.8l.3.2v1.3l.2.2v.8l.3.2v1l.2.3v1.5l.3.2v1l.2.3v.7l.3.3v.7l.2.3v1.5l.3.2v1.5l.2.3v1.2l.3.3v1.2l.2.3v2.2l-.2.3v.2l-.5.5h-.3l-.2.3h-6.5l-.3-.3h-.2l-.8-.7v-.5l-.2-.3v-.2l.2-.3v-1l.3-.2v-1l.2-.3v-2l.3-.2v-1.3l.2-.2v-.8l.3-.2v-1l.2-.3v-2l.3-.2v-1.3l.2-.2v-.5l.3-.3v-.7l.2-.3V868l.3-.2v-1.5l.2-.3v-1l.3-.2v-1l.2-.3v-1l.3-.2zm-49-9.5-.3.3h-.2l-.3.2h-.2v.3l-.3.2v1l-.2.3V897l.2.3v.7l.3.3v.2h.2l.3.3h4.7l.3-.3h.5l.2-.2v-.3l.3-.2v-2.3l.2-.2v-.5l-.2-.3V870l.2-.2V867l.8-.7h.2l1.3 1.2v.3l.5.5v.2l.2.3v.2l.3.3v.2l.2.3v.2l.5.5v.3l.5.5v.2l.3.3v.2l.5.5v.3l.2.2v.3l.3.2v.3l.5.5v.2l.7.8h1l1-1v-.3l.5-.5v-.2l.5-.5v-.3l.5-.5v-.2l.5-.5v-.3l.3-.2v-.3l.5-.5v-.2l.5-.5v-.3l.2-.2v-.3l.3-.2v-.3l.2-.2v-.3l1-1h.8l.5.5v.8l.2.2v26l-.2.3v1.5l.2.2v2.3l.5.5h5.5l.8-.8v-44.5l-.3-.2v-.3l-.2-.2h-.3l-.2-.3h-4.5l-.3.3h-.5l-.2.2h-.3l-.2.3h-.3l-.2.2v.3l-.8.7v.3l-.5.5v.2l-.2.3v.2l-.5.5v.3l-.3.2v.3l-.2.2v.3l-.5.5v.2l-.3.3v.2l-.5.5v.3l-.2.2v.3l-.3.2v.3l-.2.2v.3l-.3.2v.3l-.5.5v.2l-.2.3v.2l-.8.8h-.2l-.3.2h-1l-1-1v-.2l-.2-.3v-.2l-.5-.5v-.3l-.3-.2v-.3l-.2-.2v-.3l-.5-.5v-.2l-.3-.3v-.2l-.5-.5v-.3l-.5-.5v-.2l-.2-.3v-.2l-.3-.3v-.2l-.2-.3v-.2l-.3-.3v-.2l-.5-.5v-.3l-.5-.5v-.2l-1.2-1.3h-.3l-.2-.2h-.5l-.3-.3h-4zm-39 0-.3.3h-.2l-.3.2v.3l-.2.2v1l-.3.3v42.7l.3.3v.5l.4.5h5.6l.2-.3h.3l.2-.2v-.5l.3-.3v-31l.7-.7h.3l.2.2h.3l.7.8v.2l.8.8v.2l.4.5v.3l.3.2v.3l.5.5v.2l.5.5v.3l.5.5v.2l.5.5v.3l.3.2v.3l.2.2v.3l.5.5v.2l.3.3v.2l.7.8h.3l.2.2h.3l.2-.2h.3l.2-.3v-.2l.8-.8v-.2l.2-.3v-.2l.3-.3v-.2l.5-.5v-.3l.2-.2v-.3l.3-.2v-.3l.5-.5v-.2l.2-.3v-.2l.5-.5v-.3l.3-.2v-.3l.2-.2v-.3l.5-.5v-.2l.5-.5h.3l.2-.3h.3l.7.8v3.2l.3.3v6.2l-.3.3V898l.8.8h5.5l.2-.3h.3l.2-.2v-44.8l-.2-.2v-.3l-.3-.2h-.2l-.3-.3h-4.2l-.3.3h-.5l-.2.2h-.3l-.2.3h-.3v.2l-.7.8v.2l-.5.5v.3l-.5.5v.2l-.3.3v.2l-.2.3v.2l-.3.3v.2l-.5.5v.3l-.2.2v.3l-.3.2v.3l-.5.5v.2l-.2.3v.2l-.3.3v.2l-.2.3v.2l-.5.5v.3l-.3.2v.3l-1.2 1.2h-1.3l-1-1v-.2l-.5-.5v-.3l-.2-.2v-.3l-.5-.5v-.2l-.5-.5v-.3l-.5-.5v-.2l-.3-.3v-.2l-.5-.5v-.3l-.2-.2v-.3l-.5-.5v-.2l-.6-.5v-.3l-.4-.5v-.2l-.3-.3v-.2l-.5-.5v-.3l-1-1h-.2l-.3-.2h-.5l-.2-.3H503zM673.3 591l-.3.3h-14.7l-.3.2h-1.5l-.2.3h-.5l-.3.2h-.5l-.2.3h-.3l-1 1v.2l-.2.3v.2l-.3.3v.2l-.2.3v.5l-.3.2v.5l-.2.3v.7l-.3.3v.5l-.2.2v.5l-.3.3v.5l-.2.2v.5l-.3.3v.7l-.2.3v.7l-.3.3v.7l-.2.3v1l-.3.2v1.3l-.2.2v1l-.3.3v.7l-.2.3v1l-.3.2v1.3l-.2.2v1.3l-.3.2v1l-.2.3v1l-.3.2v1.5l-.2.3v1.5l-.3.2v1l-.2.3v1.2l-.3.3v1.2l-.2.3v1.5l-.3.2v.8l-.2.2v1l-.3.3v1.2l-.2.3v2l-.3.2v1.8l-.2.2v1l-.3.3v1.2l-.2.3v1.5l-.3.2v1.3l-.2.2v1.3l-.3.2v1.5l-.2.3v1.7l-.3.3v1.7l-.2.3v1.5l-.3.2v1.5l-.2.3v1.7l-.3.3v1.5l-.2.2v1l-.3.3v1.2l-.2.3v1.2l-.3.3v1.7l-.2.3v1.7l-.3.3v1.7l-.2.3v2l-.3.2v2l-.2.3v1.5l-.3.2v1.5l-.2.3v1.2l-.3.3v1.5l-.2.2v1.5l-.3.3v1.5l-.2.2v1.8l-.3.2v2.3l-.2.2v2.8l-.3.2v1.5l-.2.3v1.5l-.3.2v2l-.2.3v3.2l-.3.3v1.7l-.2.3v1.5l-.3.2v1.5l-.2.3v3.7l-.3.3v4l-.2.2v.3l-.3.2h-.2l-.3-.2v-.3l-.2-.2v-1l-.3-.3v-.7l-.2-.3v-.7l-.3-.3v-.7l-.2-.3v-1.7l-.3-.3v-2.5l-.2-.2v-1.5l-.3-.3v-1l-.2-.2v-2l-.3-.3v-1.7l-.2-.3v-1.2l-.3-.3v-1l-.2-.2V688l-.3-.2v-2l-.2-.3V684l-.3-.2v-1.3l-.2-.2v-1.5l-.3-.3v-2l-.2-.2v-1.5l-.3-.3v-1.2l-.2-.3v-1.2l-.3-.3v-1.7l-.2-.3v-1.7l-.3-.3v-1.2l-.2-.3v-1.7l-.3-.3v-1.7l-.2-.3v-1.5l-.3-.2v-1.8l-.2-.2V659l-.3-.2V657l-.2-.2v-1.5l-.3-.3v-1.2l-.2-.3v-1l-.3-.2v-1.5l-.2-.3v-1.7l-.3-.3v-1.7l-.2-.3V645l-.3-.2v-1l-.2-.3v-1.2l-.3-.3v-1.7l-.2-.3v-1.5l-.3-.2v-1.5l-.2-.3v-1.2l-.3-.3v-1.5l-.2-.2v-1.5l-.3-.3v-1.2l-.2-.3v-1.2l-.3-.3v-1.7l-.2-.3V625l-.3-.2v-1.3l-.2-.2v-1l-.3-.3v-1.2l-.2-.3v-2l-.3-.2v-1.5l-.2-.3v-1l-.3-.2V614l-.2-.2v-2.3l-.3-.2v-1l-.2-.3v-1l-.3-.2v-.8l-.2-.2v-2l-.3-.3v-1.2l-.2-.3v-1l-.3-.2v-1l-.2-.3V600l-.3-.2v-.8l-.2-.2v-.5l-.3-.3v-.5l-.2-.2v-1l-.3-.3v-.7l-.2-.3v-.5l-.3-.2v-.3l-.2-.2v-.3l-1.3-1.2h-.2l-.3-.3h-.5l-.2-.2h-.8l-.2-.3h-3.5l-.3-.2H586l-.2.2h-1.5l-.3.3h-.7l-.3.2h-.7l-.3.3h-.2l-.3.2h-.2l-1.5 1.5v.3l-.5.5v.5l-.3.2v.3l-.2.2v.8l-.3.2v.8l-.2.2v1l-.3.3v.7l-.2.3v1l-.3.2v1l-.2.3v1l-.3.2v1l-.2.3v1.2l-.3.3v1.2l-.2.3v1.5l-.3.2v1l-.2.3v1l-.3.2v1l-.2.3v1.7l-.3.3v2l-.2.2v1.5l-.3.3v1.2l-.2.3v1.5l-.3.2v1.3l-.2.2v.8l-.3.2v1l-.2.3v1.2l-.3.3v1.2l-.2.3v.7l-.3.3v1l-.2.2v1.5l-.3.3v1.5l-.2.2v.8l-.3.2v1l-.2.3v1.5l-.3.2v1.3l-.2.2v1l-.3.3v.7l-.2.3v1l-.3.2v1.8l-.2.2v1l-.3.3v1.2l-.2.3v1.2l-.3.3v1l-.2.2v.8l-.3.2v.8l-.2.2v1l-.3.3v1.5l-.2.2v1.3l-.3.2v.8l-.2.2v1.3l-.3.2v1.5l-.2.3v1l-.3.2v1l-.2.3v1l-.3.2v1.5l-.2.3v1l-.3.2v1l-.2.3v1l-.3.2v1.5l-.2.3v1.2l-.3.3v.7l-.2.3v1l-.3.2v1.5l-.2.3v1l-.3.2v.8l-.2.2v.8l-.3.2v1.3l-.2.2v1.8l-.3.2v1l-.2.3v1l-.3.2v1.3l-.2.2v1.3l-.3.2v1.3l-.2.2v.8l-.3.2v1.3l-.2.2v1.5l-.3.3v1.2l-.2.3v1l-.3.2v1.3l-.2.2v1.5l-.3.3v1.2l-.2.3v1l-.3.2v1l-.2.3v1l-.3.2v1.5l-.2.3v1.2l-.3.3v1.2l-.2.3v1.2l-.3.3v1.5l-.2.2v1.3l-.3.2v1l-.2.3v1l-.3.2v1l-.2.3v1l-.3.2v1.3l-.2.2v1l-.3.3v1.5l-.2.2v1.3l-.3.2v.8l-.2.2v.8l-.3.2v1l-.2.3v1.2l-.3.3v1l-.2.2v1l-.3.3v1l-.2.2v1.3l-.3.2v1l-.2.3v.7l-.3.3v1l-.2.2v1l-.3.3v.7l-.2.3v.5l-.3.2v.8l-.2.2v1l-.3.3v1.5l-.2.2v1l-.3.3v1l-.2.2v1.5l-.3.3v1l-.2.2v.8l-.3.2v.8l-.2.2v1.3l-.3.2v1.8l-.2.2v1.3l-.3.2v1.3l-.2.2v1.3l.2.2v.5l.8.8h.7l.3.2h10.2l.3.3h5.2l.3.2h2.2l.3.3h2.5l.2.2h4.3l.2.3h3.5l.3-.3h.5l.2-.2h.3l.2-.3h.3l1-1v-.2l.5-.5v-.3l.2-.2v-.5l.3-.3v-.7l.2-.3v-.2l.3-.3v-.5l.2-.2v-.8l.3-.2v-1l.2-.3v-.7l.3-.3v-.5l.2-.2v-.8l.3-.2v-1.3l.2-.2v-1l.3-.3v-1.2l.2-.3v-1l.3-.2v-1.5l.2-.3v-1.7l.3-.3v-1.2l.2-.3v-1l.3-.2v-1l.2-.3V742l.3-.2v-1.3l.2-.2V739l.3-.2v-1.3l.2-.2v-2l.3-.3v-1.2l.2-.3v-.7l.3-.3v-1l.2-.2v-1.8l.3-.2v-2l.2-.3v-1.2l.3-.3v-1.2l.2-.3v-2l.3-.2v-1.5l.2-.3v-1l.3-.2v-1.3l.2-.2V715l.3-.2v-1.5l.2-.3v-1l.3-.2v-1.3l.2-.2v-1.8l.3-.2v-2l.2-.3v-1.2l.3-.3v-1.2l.2-.3v-2.7l.3-.3v-1.2l.2-.3v-1l.3-.2v-1l.2-.3v-1.5l.3-.2v-3l.2-.3v-1.2l.3-.3V688l.2-.2v-3.3l.3-.2v-1.5l.2-.3v-1l.3-.2v-1l.2-.3v-2l.3-.2V675l.2-.2v-1.5l.3-.3v-1.5l.2-.2v-1.8l.3-.2V664l.2-.2V656l.5-.5h.5l.8.8v.2l.2.3v1l.3.2v1l.2.3v1.7l.3.3v3l.2.2v2.3l.3.2v1.8l.2.2v1.8l.3.2v1.8l.2.2v1.5l.3.3v1.5l.2.2v1.5l.3.3v2l.2.2v1.8l.3.2v1.8l.2.2v1.3l.3.2v2.3l.2.2v1.8l.3.2v1.5l.2.3v1.2l.3.3v1.7l.2.3v2.5l.3.2v1.8l.2.2v1.3l.3.2v2l.2.3v2l.3.2v1.5l.2.3v1.2l.3.3v1.5l.2.2v2.3l.3.2v1.5l.2.3v1.2l.3.3v2.2l.2.3v2l.3.2v1.3l.2.2v1l.3.3v1l.2.2v2.3l.3.2v1.8l.2.2v1.5l.3.3v1.2l.2.3v2.2l.3.3v1.5l.2.2v1.3l.3.2v1l.2.3v2l.3.2v1.3l.2.2v1l.3.3v1l.2.2v2l.3.3v1.7l.2.3v1.5l.3.2v1.3l.2.2v1.8l.3.2v1.3l.2.2v1l.3.3v.7l.2.3v.7l.3.3v1l.2.2v.3l.3.2v.5l.2.3v.2l.5.5v.3l.5.5h.3l.5.5h.2l.3.2h.2l.3.3h.7l.3.2h10.5l.2.3h8l.3.2h5.5l.2-.2h2.8l.2-.3h2.3l.2-.2h.5l.3-.3h.5l.2-.2h.3l.2-.3h.3l.2-.2h.3l1-1v-.3l.7-.7v-.3l.3-.2v-.5l.2-.3v-.2l.3-.3v-.2l.2-.3v-.7l.3-.3v-.5l.2-.2v-.5l.3-.3v-.7l.2-.3V756l.3-.2v-1.5l.2-.3v-.7l.3-.3v-.7l.2-.3v-1.5l.3-.2v-1.8l.2-.2v-.8l.3-.2v-1l.2-.3v-1.5l.3-.2V743l.2-.2v-.5l.3-.3v-.5l.2-.2v-1l.3-.3v-1.5l.2-.2v-.8l.3-.2v-1l.2-.3v-1.2l.3-.3V733l.2-.2v-.8l.3-.2v-.5l.2-.3v-.7l.3-.3v-1.5l.2-.2v-1l.3-.3v-.5l.2-.2v-1l.3-.3v-1.5l.2-.2v-.8l.3-.2v-.5l.2-.3v-1l.3-.2v-1.5l.2-.3v-.7l.3-.3v-.7l.2-.3v-.5l.3-.2v-1.5l.2-.3v-1.2l.3-.3v-.7l.2-.3v-1l.3-.2v-1.5l.2-.3v-.7l.3-.3v-.5l.2-.2v-.8l.3-.2v-1.3l.2-.2V703l.3-.2v-.8l.2-.2v-1l.3-.3v-1l.2-.2v-1l.3-.3v-1l.2-.2v-.8l.3-.2v-1l.2-.3v-1l.3-.2v-1l.2-.3v-1l.3-.2v-1l.2-.3v-1l.3-.2V687l.2-.2v-1.3l.3-.2v-1l.2-.3v-1l.3-.2v-1l.2-.3v-1.2l.3-.3v-1l.2-.2v-1l.3-.3v-1.2l.2-.3v-1.5l.3-.2v-1l.2-.3v-.7l.3-.3v-.7l.2-.3v-1.2l.3-.3v-1.2l.2-.3v-1.2l.3-.3v-1l.2-.2v-1.8l.3-.2V662l.2-.2v-.8l.3-.2v-.8l.2-.2V658l.3-.2v-1l.2-.3v-.7l.3-.3v-.7l.2-.3v-1.2l.3-.3v-1.5l.2-.2v-.8l.3-.2v-1l.2-.3v-1.7l.3-.3v-1.2l.2-.3v-.7l.3-.3v-.5l.2-.2v-1.3l.3-.2v-1.5l.2-.3v-1l.3-.2v-.8l.2-.2v-1.5l.3-.3v-1.2l.2-.3v-.5l.3-.2v-.8l.2-.2v-1l.3-.3v-1.5l.2-.2v-1l.3-.3v-.7l.2-.3v-1l.3-.2V625l.2-.2v-.8l.3-.2v-.8l.2-.2v-1l.3-.3v-1.7l.2-.3v-.7l.3-.3v-.5l.2-.2v-1l.3-.3v-1.7l.2-.3v-.7l.3-.3v-.7l.2-.3v-1.2l.3-.3v-1.5l.2-.2v-.8l.3-.2v-.5l.2-.3v-.7l.3-.3V605l.2-.2v-1.5l.3-.3v-.7l.2-.3v-1l.3-.2v-2.3l.2-.2v-1.5l.3-.3V593l-.3-.2v-.3l-1-1h-.2l-.3-.2h-1l-.2-.3h-9.8zm62.2-.5-.2.3H732l-.2.2h-10.3l-.2.3h-5l-.3.2h-.5l-.2.3h-.5l-.3.2h-.5l-.5.5h-.2l-.8.8v.2l-.5.5v.3l-.2.2v.5l-.3.3v.2l-.2.3v.7l-.3.3v1l-.2.2v1.3l-.3.2v1l-.2.3v1l-.3.2v1.3l-.2.2v1.5l-.3.3v1l-.2.2v1l-.3.3v1.5l-.2.2v1.3l-.3.2v1l-.2.3v.7l-.3.3v1l-.2.2v1.3l-.3.2v1.5l-.2.3v1l-.3.2v1.3l-.2.2v1.3l-.3.2v1.3l-.2.2v1.3l-.3.2v1.3l-.2.2v1.3l-.3.2v1.3l-.2.2v1.8l-.3.2v1.8l-.2.2v1.5l-.3.3v1.7l-.2.3v1.5l-.3.2v.8l-.2.2v.8l-.3.2v.8l-.2.2v1.3l-.3.2v1.3l-.2.2v1.3l-.3.2v1l-.2.3v1.5l-.3.2v1.3l-.2.2v1l-.3.3v1l-.2.2v1l-.3.3v1l-.2.2v1l-.3.3v1l-.2.2v1.8l-.3.2v1.3l-.2.2v1.3l-.3.2v1.3l-.2.2v1.5l-.3.3v1.2l-.2.3v1l-.3.2v1l-.2.3v1l-.3.2v1.8l-.2.2v1.3l-.3.2v1.3l-.2.2v1.5l-.3.3v1.2l-.2.3v.7l-.3.3v1l-.2.2v1l-.3.3v2l-.2.2v1l-.3.3v1l-.2.2v1.8l-.3.2v2.8l-.2.2v1.3l-.3.2v1l-.2.3v1.5l-.3.2v2l-.2.3v1l-.3.2v1l-.2.3v1.2l-.3.3v1.5l-.2.2v1.3l-.3.2v.8l-.2.2v1l-.3.3v1.7l-.2.3v1l-.3.2v.5l-.2.3v.7l-.3.3v1.2l-.2.3v1.5l-.3.2v1l-.2.3v1l-.3.2v1l-.2.3v1l-.3.2v1l-.2.3v.7l-.3.3v1.2l-.2.3v1.2l-.3.3v1l-.2.2v.8l-.3.2v1.5l-.2.3v1l-.3.2v1l-.2.3v.5l-.3.2v1l-.2.3v1l-.3.2v.8l-.2.2v1l-.3.3v1l-.2.2v1.3l-.3.2v1l-.2.3v.7l-.3.3v1l-.2.2v.8l-.3.2v.8l-.2.2v1l-.3.3v.7l-.2.3v1l-.3.2v1.3l-.2.2v1.5l-.3.3v1.2l-.2.3v1.2l-.3.3v2l-.2.2v3l.2.3v1l.8.7h.2l.3.3h4l.2.2h3.5l.3.3h4.2l.3.2H716l.3-.2h.2l.3-.3h.2l.5-.5v-.5l.3-.2v-.8l.2-.2v-.8l.3-.2v-1l.2-.3V760l.3-.2v-1.5l.2-.3v-.5l.3-.2v-.8l.2-.2v-1.8l.3-.2V753l.2-.2v-1l.3-.3v-.7l.2-.3v-1.2l.3-.3v-2l.2-.2v-1l.3-.3v-1l.2-.2V742l.3-.2v-2l.2-.3v-1l.3-.2v-1l.2-.3v-1.2l.3-.3v-3.2l.2-.3v-1.5l.3-.2V729l.2-.2v-2l.3-.3V724l.2-.2v-.8l.3-.2v-1l.2-.3v-1l.3-.2V718l.2-.2v-1l.3-.3v-.7l.2-.3v-1.2l.3-.3v-1.7l.2-.3v-.7l.3-.3v-.7l.2-.3v-.7l.3-.3v-1.7l.2-.3v-1.2l.3-.3v-1l.2-.2V703l.3-.2v-2.5l.2-.3v-1.5l.3-.2v-1l.2-.3v-1l.3-.2v-1.5l.2-.3v-1l.3-.2v-.8l.2-.2v-1l.3-.3v-1l.2-.2V688l.3-.2v-1l.2-.3v-1l.3-.2v-1l.2-.3v-1l.3-.2v-.8l.2-.2v-.8l.3-.2v-1l.2-.3v-1l.3-.2v-1l.2-.3v-.7l.3-.3v-1l.2-.2v-1l.3-.3v-1l.2-.2v-1l.3-.3v-.7l.2-.3v-.7l.3-.3v-1l.2-.2v-1.3l.3-.2v-1l.2-.3v-1.2l.3-.3v-1.2l.2-.3v-1.5l.3-.2V659l.2-.2v-.8l.3-.2v-.8l.2-.2v-1.3l.3-.2V654l.2-.2v-.8l.3-.2v-1l.2-.3v-1.2l.3-.3v-1l.2-.2v-.8l.3-.2v-.8l.2-.2v-1.3l.3-.2v-1l.2-.3v-.7l.3-.3v-1l.2-.2v-1.3l.3-.2V639l.2-.2v-.8l.3-.2v-.8l.2-.2v-1.5l.3-.3v-1.2l.2-.3v-.7l.3-.3v-.5l.2-.2v-1.3l.3-.2v-1.5l.2-.3v-1l.3-.2v-.8l.2-.2v-1.8l.3-.2V623l.2-.2v-.8l.3-.2v-.5l.2-.3v-1l.3-.2v-2l.2-.3v-.7l.3-.3v-1l.2-.2v-1l.3-.3v-1.5l.2-.2v-.8l.3-.2v-.8l.2-.2v-1l.3-.3v-1.7l.2-.3v-.7l.3-.3v-.7l.2-.3v-1l.3-.2v-2l.2-.3v-1l.3-.2v-.8l.2-.2v-1.8l.3-.2v-2.5l.2-.3V593l-.2-.2v-.3l-.3-.2v-.3l-.2-.2h-.3l-.2-.3h-.5l-.3-.2h-1.2l-.3-.3h-2.7l-.3-.2h-2.7l-.3-.3h-2.7zm-271.5 0-.2.3h-2.3l-.2.2h-1.8l-.2.3h-.8l-.2.2h-.6l-.4.5h-.3l-.7.8v.2l-.6.5v.5l-.2.3v.5l-.2.2v.5l-.3.3v.7l-.2.3v.7l-.3.3v.7l-.2.3v.7l-.3.3v1l-.2.2v1l-.3.3v1l-.2.2v1l-.3.3v.7l-.2.3v1l-.3.2v.8l-.2.2v.8l-.3.2v1l-.2.3v1l-.3.2v1l-.2.3v1.2l-.3.3v1l-.2.2v1l-.3.3v1l-.2.2v1.3l-.3.2v1l-.2.3v1l-.3.2v1l-.2.3v1.2l-.3.3v1.2l-.2.3v1l-.3.2v1.3l-.2.2v1l-.3.3v1l-.2.2v.8l-.3.2v.8l-.2.2v1.3l-.3.2v1.5l-.2.3v1.2l-.3.3v1.2l-.2.3v1.2l-.3.3v1.2l-.2.3v.7l-.3.3v.7l-.2.3v1l-.3.2v1.3l-.2.2v.8l-.3.2v1l-.2.3v1.5l-.3.2v1.5l-.2.3v1l-.3.2v.8l-.2.2v1.5l-.3.3v1.5l-.2.2v1l-.3.3v.7l-.2.3v1l-.3.2v2l-.2.3v1.2l-.3.3v1.2l-.2.3v1.5l-.3.2v1.5l-.2.3v1l-.3.2v.8l-.2.2v1l-.3.3v1.7l-.2.3v1.2l-.3.3v1.2l-.2.3v1.2l-.3.3v2.2l-.2.3v1.2l-.3.3v1l-.2.2v1.3l-.3.2v2.3l-.2.2v2.3l-.3.2v1.5l-.2.3v1.2l-.3.3v2l-.2.2v1.5l-.3.3v1l-.2.2v1.3l-.3.2v1.8l-.2.2v1.3l-.3.2v1l-.2.3v1l-.3.2v1.8l-.2.2v2.3l-.3.2v1.8l-.2.2v1.3l-.3.2v2l-.2.3v14l.2.2v2l.3.3v1.5l.2.2v1.3l.3.2v1.8l.2.2v1l.3.3v.7l.2.3v.5l.3.2v.5l.2.3v.5l.3.2v.5l.2.3v.5l.3.2v.5l.2.3v.5l.3.2v.3l.2.2v.3l.3.2v.5l.2.3v.2l.5.5v.3l.3.2v.3l.2.2v.3l.5.5v.2l.3.3v.2l.4.5v.3l.8.7v.3l1.3 1.2v.3l2.7 2.7h.3l1.2 1.3h.3l.4.5h.3l.3.2h.2l.5.5h.3l.4.5h.3l.3.3h.2l.3.2h.2l.3.3h.2l.3.2h.2l.3.3h.2l.3.2h.2l.3.3h.2l.3.2h.4l.3.3h.5l.3.2h.2l.3.3h.2l.3.2h.4l.3.3h1l.3.2h.4l.3.3h.5l.3.2h1.2l.3.3h1.4l.3.2h.5l.3.3h.7l.3.2h1l.2.3h2.3l.2.2h1.8l.2.3h2l.3.2h12.4l.3-.2h1.3l.2-.3h1.8l.2-.2h1.8l.2-.3h.8l.2-.2h.5l.3-.3h.4l.3-.2h1l.3-.3h1l.2-.2h.5l.3-.3h.7l.3-.2h.7l.3-.3h.4l.3-.2h.3l.2-.3h.5l.3-.2h.2l.3-.3h.4l.3-.2h.3l.2-.3h.3l.2-.2h.3l.2-.3h.3l.4-.5h.3l.3-.2h.2l.3-.3h.2l.5-.5h.3l.2-.2h.3l.4-.5h.3l.5-.5h.3l.2-.3h.3l.7-.7h.3l.4-.5h.3l.8-.8h.2l4.5-4.5v-.2l1.5-1.5v-.3l.8-.7v-.3l1-1v-.2l.7-.8v-.2l.3-.3v-.2l.5-.5v-.3l.5-.5v-.2l.5-.5v-.3l.2-.2v-.3l.3-.2v-.3l.5-.5v-.2l.2-.3v-.2l.3-.3v-.2l.2-.3v-.2l.5-.5v-.3l.3-.2v-.3l.2-.2v-.3l.3-.2v-.5l.2-.3v-.2l.3-.3v-.5l.2-.2v-.3l.3-.2v-.3l.2-.2v-.5l.3-.3v-.5l.2-.2v-.3l.3-.2v-.3l.2-.2v-.8l.3-.2v-.5l.2-.3v-.2l.3-.3v-.5l.2-.2v-.8l.3-.2v-.8l.2-.2v-.3l.3-.2v-.5l.2-.3v-.7l.3-.3v-1l.2-.2v-.8l.3-.2v-.8l.2-.2v-1.3l.3-.2v-1l.2-.3v-.7l.3-.3v-.5l.2-.2v-.8l.3-.2v-1.8l.2-.2v-.8l.3-.2v-1l.2-.3v-1.2l.3-.3V712l.2-.2v-.8l.3-.2v-.5l.2-.3v-1.2l.3-.3V707l.2-.2v-.8l.3-.2v-.8l.2-.2v-1l.3-.3V702l.2-.2v-.8l.3-.2v-.8l.2-.2v-1l.3-.3V697l.2-.2v-.8l.3-.2v-.5l.2-.3v-.7l.3-.3v-1.5l.2-.2V691l.3-.2v-.8l.2-.2v-1l.3-.3V687l.2-.2v-.8l.3-.2v-.5l.2-.3v-.7l.3-.3v-1l.2-.2v-1.5l.3-.3v-.7l.2-.3v-.7l.3-.3v-1.2l.2-.3v-1.2l.3-.3v-.7l.2-.3v-1l.3-.2v-.8l.2-.2v-1.3l.3-.2v-.8l.2-.2v-.8l.3-.2v-1l.2-.3v-1.2l.3-.3v-1.2l.2-.3v-.7l.3-.3v-1l.2-.2v-1l.3-.3v-1l.2-.2v-.8l.3-.2v-1l.2-.3v-.7l.3-.3v-1.2l.2-.3v-1.2l.3-.3v-.7l.2-.3v-.7l.3-.3v-.7l.2-.3v-1.2l.3-.3v-1l.2-.2v-.8l.3-.2v-1l.2-.3v-1.5l.3-.2v-.8l.2-.2v-.8l.3-.2v-1l.2-.3v-1.5l.3-.2v-.8l.2-.2v-.8l.3-.2v-.8l.2-.2v-1l.3-.3v-1.2l.2-.3v-.7l.3-.3v-1l.2-.2V630l.3-.2v-1.3l.2-.2v-.5l.3-.3v-.5l.2-.2v-1l.3-.3V624l.2-.2v-1l.3-.3v-.7l.2-.3V620l.3-.2v-1l.2-.3v-.7l.3-.3v-.5l.2-.2v-1l.3-.3V614l.2-.2v-.8l.3-.2v-.8l.2-.2v-1l.3-.3v-1.7l.2-.3v-.7l.3-.3v-.7l.2-.3v-1.2l.3-.3v-1.7l.2-.3v-.5l.3-.2v-.8l.2-.2v-1l.3-.3v-2.5l.2-.2V596l.3-.2v-1.3l.2-.2V593l-.2-.2v-.5l-.5-.5v-.3h-.3l-.2-.2h-.3l-.2-.3h-1l-.3-.2H549l-.2-.3h-18.5l-.3.3h-3l-.2.2H524l-.2.3h-1l-.3.2h-.5l-.2.3h-.3l-.2.2h-.3l-.2.3h-.3l-.5.5v.2l-.5.5v.3l-.2.2v.5l-.3.3v.5l-.2.2v.8l-.3.2v.8l-.2.2v.5l-.3.3v1l-.2.2v1.5l-.3.3v1.5l-.2.2v1l-.3.3v1.2l-.2.3v1.2l-.3.3v1.5l-.2.2v1l-.3.3v1.2l-.2.3v1.2l-.3.3v1.2l-.2.3v1l-.3.2v1.3l-.2.2v1l-.3.3v1.2l-.2.3v1l-.3.2v1l-.2.3v.7l-.3.3v1l-.2.2v1.8l-.3.2v1.3l-.2.2v1l-.3.3v1.2l-.2.3v1.5l-.3.2v1l-.2.3v.7l-.3.3v.7l-.2.3v1.2l-.3.3v1.2l-.2.3v1.2l-.3.3v1.2l-.2.3v1.5l-.3.2v1l-.2.3v.7l-.3.3v.7l-.2.3v1.2l-.3.3v1.5l-.2.2v1l-.3.3v1l-.2.2v1.5l-.3.3v1.5l-.2.2v1l-.3.3v1l-.2.2v1.3l-.3.2v1l-.2.3v1l-.3.2v.8l-.2.2v1.3l-.3.2v1.8l-.2.2v1l-.3.3v1l-.2.2v1.5l-.3.3v1.2l-.2.3v.7l-.3.3v.7l-.2.3v.7l-.3.3v1.5l-.2.2v1.3l-.3.2v1l-.2.3v1.2l-.3.3v1.5l-.2.2v.8l-.3.2v.8l-.2.2v1.3l-.3.2v1.3l-.2.2v1.3l-.3.2v.8l-.2.2v.8l-.3.2v1.5l-.2.3v1l-.3.2v.8l-.2.2v1l-.3.3v1l-.2.2v1l-.3.3v.7l-.2.3v.7l-.3.3v1l-.2.2v1l-.3.3v1l-.2.2v.8l-.3.2v1l-.2.3v.7l-.3.3v.7l-.2.3v.5l-.3.2v.8l-.2.2v1l-.3.3v1l-.2.2v.8l-.3.2v.8l-.2.2v.8l-.3.2v.8l-.2.2v.5l-.3.3v.5l-.2.2v.8l-.3.2v.5l-.2.3v.5l-.3.2v.5l-.2.3v.5l-.3.2v.5l-.2.3v.5l-.3.2v.3l-.2.2v.3l-.3.2v.5l-.2.3v.2l-.3.3v.2l-.2.3v.2l-.3.3v.2l-.2.3v.2l-.6.5v.3l-2 2h-.2l-.5.5h-.2l-.3.2h-.2l-.6.5h-.2l-.2.3h-.6l-.2.2h-.7l-.3.3h-.5l-.2.2h-.6l-.2.3h-.7l-.3.2h-8.2l-.3-.2h-.2l-.3-.3h-.2l-2.3-2.2v-.3l-.2-.2v-.3l-.3-.2v-.3l-.2-.2v-.5l-.3-.3v-.5l-.2-.2v-.3l-.3-.2v-.8l-.2-.2v-2l-.3-.3V717l.3-.2v-3l.2-.3v-1l.3-.2v-1l.2-.3v-1.2l.3-.3v-2.2l.2-.3v-.7l.3-.3v-1l.2-.2v-1.5l.3-.3v-1.7l.2-.3v-.7l.3-.3v-.7l.2-.3v-1l.3-.2v-2l.2-.3v-1l.3-.2v-1l.2-.3v-1.2l.3-.3v-1.7l.2-.3v-1l.3-.2v-.8l.2-.2v-1l.3-.3v-1.5l.2-.2v-1.5l.3-.3v-1l.2-.2v-1l.3-.3v-1.5l.2-.2V677l.3-.2v-1l.2-.3v-.7l.3-.3v-1.2l.2-.3v-1.5l.3-.2v-1l.2-.3v-1l.3-.2v-1.3l.2-.2V666l.3-.2v-1.3l.2-.2V663l.3-.2v-1l.2-.3v-1l.3-.2v-1l.2-.3v-1.2l.3-.3v-1l.2-.2V655l.3-.2v-1.5l.2-.3v-1.2l.3-.3v-1l.2-.2v-1l.3-.3v-1.2l.2-.3v-1.2l.3-.3v-1l.2-.2v-1l.3-.3v-1.2l.2-.3v-1.5l.3-.2V639l.2-.2v-.8l.3-.2v-1.3l.2-.2v-1.8l.3-.2v-1l.2-.3v-1l.3-.2v-1l.2-.3v-1.2l.3-.3v-1.5l.2-.2v-1l.3-.3v-1l.2-.2v-2l.3-.3v-1.2l.2-.3v-.7l.3-.3v-.5l.2-.2V618l.3-.2V616l.2-.2v-1l.3-.3v-1l.2-.2v-1.8l.3-.2V610l.2-.2v-.8l.3-.2v-.8l.2-.2v-1.3l.3-.2v-1.8l.2-.2v-.8l.3-.2v-.8l.2-.2v-1.5l.3-.3V599l.2-.2v-.8l.3-.2v-.8l.2-.2V593l-.2-.2v-.3l-1-1h-.6l-.2-.2h-2.7l-.3-.3H478l-.2-.2h-6l-.3-.3h-7.2zm350.5-3.5-.2.3h-1.5l-.3.2h-1.2l-.3.3h-1.2l-.3.2h-2.2l-.3.3h-1.5l-.2.2h-.8l-.2.3h-.8l-.2.2h-1l-.3.3h-.7l-.3.2h-.2l-.3.3h-.5l-.2.2h-.5l-.3.3h-.5l-.2.2h-.5l-.3.3h-.2l-.3.2h-.5l-.2.3h-.3l-.2.2h-.3l-.2.3h-.5l-.3.2h-.2l-.3.3h-.2l-.3.2h-.2l-.3.3h-.2l-.3.2h-.2l-.3.3h-.2l-.3.2h-.2l-.3.3h-.2l-.3.2h-.2l-.5.5h-.3l-.5.5h-.2l-.3.3h-.2l-.3.2h-.2l-.5.5h-.3l-.7.8h-.3l-.7.7h-.3l-1 1h-.2l-1.3 1.3h-.2l-3 3v.2l-1.5 1.5v.3l-1 1v.2l-.8.8v.2l-.7.8v.2l-.8.8v.2l-.7.8v.2l-.3.3v.2l-.5.5v.3l-.5.5v.2l-.5.5v.3l-.2.2v.3l-.5.5v.2l-.3.3v.2l-.2.3v.2l-.3.3v.2l-.2.3v.2l-.5.5v.3l-.3.2v.3l-.2.2v.3l-.3.2v.3l-.2.2v.3l-.3.2v.3l-.2.2v.5l-.3.3v.2l-.2.3v.2l-.3.3v.2l-.2.3v.2l-.3.3v.2l-.2.3v.5l-.3.2v.3l-.2.2v.5l-.3.3v.5l-.2.2v.3l-.3.2v.5l-.2.3v.5l-.3.2v.5l-.2.3v.5l-.3.2v.5l-.2.3v.7l-.3.3v.7l-.2.3v.5l-.3.2v.8l-.2.2v1l-.3.3v.5l-.2.2v.5l-.3.3v.7l-.2.3v.7l-.3.3v1l-.2.2v1l-.3.3v1l-.2.2v1l-.3.3v1l-.2.2v.8l-.3.2v.5l-.2.3v1l-.3.2v.8l-.2.2v1l-.3.3v.7l-.2.3v1l-.3.2v1.3l-.2.2v.8l-.3.2v.8l-.2.2v.8l-.3.2v1.3l-.2.2v.8l-.3.2v.5l-.2.3v1l-.3.2v1.3l-.2.2v1l-.3.3v.7l-.2.3v1l-.3.2v1l-.2.3v.7l-.3.3v.7l-.2.3v.5l-.3.2v1.3l-.2.2v1.3l-.3.2v.8l-.2.2v1l-.3.3v1.2l-.2.3v1l-.3.2v.8l-.2.2v.8l-.3.2v1l-.2.3v1.2l-.3.3v1l-.2.2v1l-.3.3v1.5l-.2.2v1.5l-.3.3v1.2l-.2.3v1.2l-.3.3v1.2l-.2.3v1.5l-.3.2v1.3l-.2.2v1.3l-.3.2v1.5l-.2.3v2.2l-.3.3v1.7l-.2.3v1.2l-.3.3v1.5l-.2.2v1.5l-.3.3v2l-.2.2v1.5l-.3.3v2l-.2.2v2.5l-.3.3v3.5l-.2.2v10.3l.2.2v2.8l.3.2v1.8l.2.2v1l.3.3v.7l.2.3v1l.3.2v.5l.2.3v.5l.3.2v.8l.2.2v.8l.3.2v.5l.2.3v.5l.3.2v.3l.2.2v.5l.3.3v.2l.2.3v.2l.3.3v.5l.2.2v.3l.3.2v.3l.2.2v.3l.3.2v.3l.2.2v.3l.3.2v.3l.2.2v.3l.5.5v.2l.5.5v.3l.3.2v.3l.5.5v.2l1 1v.3l1 1v.2l3.7 3.8h.3l1 1h.2l.8.7h.2l.3.3h.2l.5.5h.3l.5.5h.2l.3.2h.2l.3.3h.2l.3.2h.2l.5.5h.3l.2.3h.3l.2.2h.5l.3.3h.2l.3.2h.2l.3.3h.5l.2.2h.5l.3.3h.2l.3.2h.5l.2.3h1l.3.2h.7l.3.3h.5l.2.2h.8l.2.3h1.8l.2.2h1l.3.3h.7l.3.2h1.2l.3.3h1.7l.3.2h2.5l.2.3h11.8l.2-.3h2.3l.2-.2h2l.3-.3h1.2l.3-.2h.5l.2-.3h.8l.2-.2h1.3l.2-.3h1l.3-.2h.7l.3-.3h.7l.3-.2h.7l.3-.3h.2l.3-.2h.2l.3-.3h.2l.3-.2h.5l.2-.3h.5l.3-.2h.2l.3-.3h.2l.3-.2h.2l.3-.3h.2l.3-.2h.2l.3-.3h.2l.3-.2h.2l.3-.3h.2l.3-.2h.2l.5-.5h.3l.2-.3h.3l.5-.5h.2l.5-.5h.3l.7-.7h.3l.2-.3h.3l.7-.7h.3l1.2-1.3h.3l1-1h.2l2.5-2.5v-.2l2-2v-.3l1.5-1.5v-.2l.8-.8v-.2l.5-.5v-.3l.5-.5v-.2l.5-.5v-.3l.5-.5v-.2l.5-.5v-.3l.2-.2v-.3l.3-.2v-.3l.2-.2v-.3l.5-.5v-.2l.3-.3v-.2l.2-.3v-.2l.3-.3v-.2l.2-.3v-.5l.3-.2v-.3l.2-.2v-.3l.3-.2v-.3l.2-.2v-.5l.3-.3v-.2l.2-.3v-.2l.3-.3v-.5l.2-.2v-.5l.3-.3v-.5l.2-.2v-.5l.3-.3v-.5l.2-.2v-.8l.3-.2v-.8l.2-.2v-.3l.3-.2v-.5l.2-.3v-1l.3-.2v-.8l.2-.2v-.5l.3-.3v-.5l.2-.2V727l.3-.2v-.8l.2-.2v-.3l.3-.2v-.5l.2-.3v-.7l.3-.3v-1l.2-.2v-.8l.3-.2v-.5l.2-.3v-1.2l.3-.3v-.7l.2-.3v-.5l.3-.2v-.5l.2-.3v-1l.3-.2v-1l.2-.3v-.7l.3-.3v-.5l.2-.2v-1l.3-.3v-1.2l.2-.3v-.5l.3-.2v-.5l.2-.3v-1.2l.3-.3v-1l.2-.2v-.8l.3-.2v-.3l.2-.2v-1l.3-.3v-1.2l.2-.3v-1l.3-.2v-.5l.2-.3v-1.2l.3-.3v-1.2l.2-.3v-.5l.3-.2v-.5l.2-.3v-.7l.3-.3V692l.2-.2v-1l.3-.3v-.7l.2-.3v-1l.3-.2v-1.8l.2-.2v-.8l.3-.2v-.8l.2-.2v-1l.3-.3v-1.5l.2-.2V680l.3-.2v-.8l.2-.2v-1l.3-.3V676l.2-.2V674l.3-.2v-1l.2-.3v-1.2l.3-.3v-1.5l.2-.2v-1.8l.3-.2v-1l.2-.3v-1l.3-.2v-1.5l.2-.3v-2.2l.3-.3v-1.7l.2-.3V657l.3-.2V655l.2-.2v-2l.3-.3v-2.2l.2-.3v-2l.3-.2v-2.5l.2-.3v-3l.3-.2v-4l.2-.3V633l.3-.2v-7.5l-.3-.3v-2.5l-.2-.2V620l-.3-.2v-1.3l-.2-.2v-1l-.3-.3v-.7l-.2-.3v-.7l-.3-.3v-.7l-.2-.3v-.5l-.3-.2v-.5l-.2-.3v-.5l-.3-.2v-.5l-.2-.3v-.5l-.3-.2v-.3l-.2-.2v-.3l-.3-.2v-.3l-.2-.2v-.5l-.3-.3v-.2l-.2-.3v-.2l-.3-.3v-.2l-.2-.3v-.2l-.3-.3v-.2l-.5-.5v-.3l-.5-.5v-.2l-.5-.5v-.3l-.2-.2v-.3l-.8-.7v-.3l-.5-.5v-.2l-1.5-1.5v-.3l-1.2-1.2h-.3l-.2-.3v-.2h-.3l-2-2h-.2l-.8-.8h-.2l-.8-.7h-.2l-.5-.5h-.3l-.2-.3h-.3l-.2-.2h-.3l-.2-.3h-.3l-.5-.5h-.2l-.3-.2h-.2l-.3-.3h-.5l-.2-.2h-.3l-.2-.3h-.3l-.2-.2h-.3l-.2-.3h-.3l-.2-.2h-.5l-.3-.3h-.2l-.3-.2h-.5l-.2-.3h-.5l-.3-.2h-.2l-.3-.3h-.5l-.2-.2h-.5l-.3-.3h-1.2l-.3-.2h-.7l-.3-.3h-1l-.2-.2h-1l-.3-.3H827l-.2-.2h-1l-.3-.3h-1l-.2-.2h-1l-.3-.3h-8.2zm-1 31.8.3-.3h2.7l.3.3h1.7l.3.2h.5l.2.3h.3l.2.2h.3l.2.3h.3l.5.5h.2l1 1h.3l.5.5v.2l.5.5v.3l.5.5v.2l.2.3v.2l.5.5v.5l.3.3v.5l.2.2v.8l.3.2v1l.2.3v9.2l-.2.3v2l-.3.2v1l-.2.3v1.7l-.3.3v1.5l-.2.2v1.3l-.3.2v1l-.2.3v1.2l-.3.3v2l-.2.2v1.5l-.3.3v1l-.2.2v1.8l-.3.2v2l-.2.3v1.2l-.3.3v1l-.2.2v1l-.3.3v1.5l-.2.2v1.3l-.3.2v1l-.2.3v1.2l-.3.3v1.5l-.2.2v1.8l-.3.2v1l-.2.3v1.2l-.3.3v1.7l-.2.3v1l-.3.2v.8l-.2.2v.8l-.3.2v1.3l-.2.2v1.8l-.3.2v1.3l-.2.2v1l-.3.3v1.5l-.2.2v1.3l-.3.2v1l-.2.3v1l-.3.2v1l-.2.3v1.2l-.3.3v1l-.2.2v.8l-.3.2v1.3l-.2.2v1.3l-.3.2v1.3l-.2.2v.8l-.3.2v1l-.2.3v1l-.3.2v1l-.2.3v1l-.3.2v1l-.2.3v1l-.3.2v1.3l-.2.2v1l-.3.3v.7l-.2.3v.5l-.3.2v.8l-.2.2v1l-.3.3v.5l-.2.2v.8l-.3.2v.8l-.2.2v1l-.3.3v.7l-.2.3v.5l-.3.2v.5l-.2.3v.7l-.3.3v.7l-.2.3v.5l-.3.2v.5l-.2.3v.5l-.3.2v.5l-.2.3v.5l-.3.2v.3l-.2.2v.5l-.3.3v.2l-.7.8v.2l-.5.5v.3l-2.5 2.5h-.3l-.5.5h-.2l-.3.2h-.2l-.3.3h-.2l-.5.5h-.3l-.2.2h-.5l-.3.3h-.5l-.2.2h-.5l-.3.3h-.7l-.3.2h-6.7l-.3-.2h-.5l-.2-.3h-.5l-.3-.2h-.5l-.2-.3h-.5l-.3-.2h-.2l-.5-.5h-.3l-.5-.5h-.2l-1.3-1.3v-.2l-.5-.5v-.3l-.2-.2v-.3l-.3-.2v-.3l-.2-.2v-.5l-.3-.3v-.5l-.2-.2v-.5l-.3-.3v-.5l-.2-.2v-2l-.3-.3v-8.2l.3-.3V715l.2-.2v-1.3l.3-.2V712l.2-.2v-2.3l.3-.2v-2.8l.2-.2v-1.5l.3-.3v-1l.2-.2v-1.5l.3-.3v-2.7l.2-.3v-1.2l.3-.3v-.7l.2-.3v-1.5l.3-.2v-2l.2-.3v-1l.3-.2v-.8l.2-.2v-1l.3-.3v-2.2l.2-.3v-1.2l.3-.3v-1l.2-.2V682l.3-.2V680l.2-.2v-.8l.3-.2v-.8l.2-.2v-.8l.3-.2v-1.5l.2-.3v-1.2l.3-.3v-1l.2-.2v-1l.3-.3v-1.5l.2-.2v-1l.3-.3v-.7l.2-.3v-.7l.3-.3v-1.2l.2-.3v-1l.3-.2v-1l.2-.3v-.7l.3-.3v-1l.2-.2v-1.3l.3-.2v-.8l.2-.2v-1l.3-.3v-.7l.2-.3v-1l.3-.2v-.8l.2-.2v-1l.3-.3v-.7l.2-.3v-1l.3-.2V648l.2-.2v-1.3l.3-.2v-1l.2-.3v-.7l.3-.3v-.7l.2-.3v-1l.3-.2v-.5l.2-.3v-.5l.3-.2v-.8l.2-.2v-.8l.3-.2v-.5l.2-.3v-.5l.3-.2v-.5l.2-.3v-.7l.3-.3v-.5l.2-.2v-.3l.3-.2v-.3l.2-.2v-.5l.3-.3v-.5l.2-.2v-.3l.3-.2v-.3l.2-.2v-.5l.3-.3v-.2l.5-.5v-.3l.2-.2v-.3l.3-.2v-.3l.5-.5v-.2l.2-.3v-.2l.5-.5v-.3l.5-.5v-.2l.5-.5v-.3l3-3h.3l.5-.5h.2l.5-.5h.3l.5-.5h.2l.3-.2h.2l.3-.3h.2l.3-.2h.2l.3-.3h.7l.3-.2h2zm11.3-74.8-.3.3h-7.2l-.3.2h-.5l-.5.5h-.2l-1.8 1.8v.2l-.5.5v.3l-.5.5v.2l-.7.8v.2l-.8.8v.2l-1.2 1.3v.2l-1.5 1.5v.3l-1.3 1.2v.3l-1.7 1.7v.3l-3.3 3.2v.3l-2.2 2.2v.3l-2.5 2.5v.2l-2.8 2.8v.2l-3 3v.3l-1.2 1.2v.3l-.5.5v.2l-.3.3v.2l-.2.3v1l.2.2h5l.3-.2h2.5l.2-.3h2.5l.3-.2h5.7l.3-.3h5.2l.3-.2h2.2l.3-.3h1l.2-.2h.8l.2-.3h.5l.3-.2h.2l.5-.5h.3l.5-.5h.2l4.3-4.3h.2l9.3-9.2h.2l2.5-2.5h.3l5.2-5.3h.3l3.2-3.2v-.3l.8-.7v-.3l.5-.5v-1.2l-.3-.3v-.2l-.7-.8h-.3l-.2-.2h-.3l-.2-.3H825zm57.5-54.2-.3.2H750.5l-.2.3h-.5v.4l.2.3h.3l.2.3h.3l.2.2h1.3l.2.3h1.3l.2.2h.5l.3.3h.5l.2.2h.8l.2.3h1.3l.2.2h.8l.2.3h.5l.3.2h1l.2.3h1.3l.2.2h.8l.2.3h.5l.3.2h.7l.3.3h1.2l.3.2h1l.2.3h.5l.3.2h.5l.2.3h.8l.2.2h1l.3.3h.5l.2.2h.8l.2.3h1l.3.2h1l.2.3h.5l.3.2h.7l.3.3h1l.2.2h1.5l.3.3h.7l.3.2h.5l.2.3h.8l.2.2h.8l.2.3h.8l.2.2h.5l.3.3h.5l.2.2h1l.3.3h.7l.3.2h.7l.3.3h.7l.3.2h.7l.3.3h1.2l.3.2h.7l.3.3h.7l.3.2h.5l.2.3h1l.3.2h.7l.3.3h.5l.2.2h.5l.3.3h1l.2.2h.8l.2.3h.5l.3.2h.5l.2.3h.5l.3.2h1l.2.3h.5l.3.2h.7l.3.3h.7l.3.2h1l.2.3h.5l.3.2h.5l.2.3h.5l.3.2h1l.2.3h.8l.2.2h.5l.3.3h.5l.2.2h1.3l.2.3h.8l.2.2h.5l.3.3h.5l.2.2h1l.3.3h.7l.3.2h.5l.2.3h.5l.3.2h.7l.3.3h1l.2.2h.5l.3.3h.7l.3.2h1l.2.3h.8l.2.2h.5l.3.3h.5l.2.2h.5l.3.3h1.2l.3.2h.7l.3.3h.5l.2.2h.8l.2.3h1.3l.2.2h.5l.3.3h.5l.2.2h.5l.3.3h1.2l.3.2h.5l.2.3h.5l.3.2h.5l.2.3h1.3l.2.2h.5l.3.3h.5l.2.2h.5l.3.3h1l.2.2h.5l.3.3h.5l.2.2h.5l.3.3h.7l.3.2h.7l.3.3h.7l.3.2h.5l.2.3h1l.3.2h.7l.3.3h.5l.2.2h.5l.3.3h.7l.3.2h1l.2.3h.8l.2.2h.5l.3.3h.7l.3.2h.7l.3.3h1l.2.2h.5l.3.3h.7l.3.2h.7l.3.3h1l.2.2h.8l.2.3h.5l.3.2h.7l.3.3h1l.2.2h.8l.2.3h.5l.3.2h.5l.2.3h.8l.2.2h1l.3.3h.5l.2.2h.8l.2.3h1l.3.2h.7l.3.3h.5l.2.2h.5l.3.3h.5l.2.2h1l.3.3h.7l.3.2h.5l.2.3h.8l.2.2h.8l.2.3h.8l.2.2h.5l.3.3h.7l.3.2h1l.2.3h.8l.2.2h.5l.3.3h.5l.2.2h1l.3.3h1l.2.2h.5l.3.3h.7l.3.2h1.2l.3.3h.7l.3.2h.2l.3.3h.2l.3.2h.7l.3.3h1l.2.2h.5l.3.3h.5l.2.2h1l.3.3h.7l.3.2h.5l.2.3h.5l.3.2h.7l.3.3h.7l.3.2h.5l1.5 1.5v.3l.2.2v186.8l-.2.2v.8l-.3.2v.3l-.2.2v.3l-1 1v.2l-.5.5h-.3v.3L897 742.3h-.2L891 748v.3l-1.2 1.2h-.3v.3l-32.7 32.7h-.3l-15.2 15.3v.2l-.3.3h-.2l-72.3 72.2h-.2l-9.5 9.5v.3l-1.3 1.2h-.2v.3l-1.8 1.7h-.2v.3l-.5.5h-.3L710.8 928h-.3l-.5.5h-.2l-.5.5h-.8l-.2.3h-312l-.3-.3h-.7l-.3-.2h-.2l-.8-.8h-.2l-2.8-2.7v-.3l-2.2-2.2v-.3h-.3l-.2-.2v-.3l-4-4v-.2l-7.8-7.8h-.2l-4.6-4.5h-.2l-19.2-19.2h-.3l-.5-.5v-.3l-.7-.7h-.3l-6.5-6.5v-.3l-.2-.2h-.3l-1.2-1.3v-.2l-1.8-1.8h-.2l-.3-.2v-.3l-11-11h-.2l-.3-.2v-.3l-1.7-1.7h-.3l-1.2-1.3v-.2l-.6-.5h-.2l-1.5-1.5v-.3l-.5-.5h-.2l-1.8-1.7v-.3l-1-1h-.2l-.8-.7v-.3l-27.2-27.2h-.3l-1-1v-.3l-.5-.5h-.2l-20.8-20.7v-.3l-1-1h-.2l-1-1v-.2l-.8-.8h-.2l-1.3-1.2v-.3l-.2-.2h-.3l-2.5-2.5v-.3l-.2-.2h-.3l-1.2-1.3v-.2l-6-6h-.3l-.7-.8v-.2l-.8-.8h-.2L220 754.3h-.2l-.6-.5v-.3l-4.2-4.2h-.2l-.3-.3v-.2l-8.5-8.5h-.2l-1.6-1.5v-.3l-.4-.5h-.3l-1.7-1.7h-.3l-.2-.3h-.8l-.2-.2h-77l-.3.2v.8l2.8 2.7h.2l.5.5v.3l.3.2h.2l.3.3v.2l1.2 1.3h.3l21 21h.2l.5.5v.2l.5.5h.3l29.7 29.8h.3l.4.5v.2l.6.5h.2l29.8 29.8h.2l2.5 2.5v.2l.3.3h.2l3.3 3.2v.3h.2l29.5 29.5h.3l.7.7v.3h.3l.7.7v.3h.3l23.7 23.7h.3l1 1v.3h.2l.3.2v.3l.4.5h.3l1.5 1.5v.2l.3.3h.2l43 43h.3l1.2 1.2v.3l.5.5h.3l1.4 1.5v.2l.3.3h.3l2.2 2.2v.3l.3.2h.2l1.5 1.5v.3l.5.5h.3l28.4 28.5h.3l1.5 1.5v.2l.8.8h.2l1 1v.2l1.3 1.3h.2l1.3 1.2v.3l.7.7h.3l6.2 6.3h.3l1 1h.2l.3.2h.2l.3.3h.4l.3.2h1.3l.2.3h152.5l.3-.3h.2l.3.3h1l.2-.3h5.5l.3.3h.2l.3-.3h2.2l.3.3h.2l.3-.3h2.2l.3.3h.2l.3-.3h5.2l.3.3h.2l.3-.3h1.5l.2.3H722l.3-.3h1.7l.3-.2h.2l.5-.5h.3L926.5 785h.3l.2-.2v-.3l1.3-1.2h.2l.8-.8v-.2l1.7-1.8h.3l1.2-1.2v-.3l.5-.5h.3l4-4v-.2l1-1h.2l.8-.8v-.2l1.2-1.3h.3l.2-.2v-.3l2-2h.3l15.5-15.5v-.2l.2-.3h.3l1.2-1.2v-.3l.8-.7h.2l2-2v-.3l.5-.5h.3l1.2-1.2v-.3l.3-.2h.2l7.5-7.5v-.3l.8-.7v-.3l.2-.2v-2l.3-.3V491.8l-.3-.3v-.7l-.2-.3v-.2h-.3l-.2-.3h-9.5l-.3-.2h-78.7l-.3.2h-1.2l-.3-.2h-1zM662.5 377.3l-.2.2h-.3l-.2.3h-.3l-.2.2v.3l-.5.4v.3l-.5.5v.5l-.3.3v.2l-.2.3v.2l-.3.3v.2l-.2.3v.4l-.3.3v.3l-.2.2v.3l-.3.2v.3l-.2.2v.3l-.3.2v.5l-.2.3v.2l-.3.3v.4l-.2.3v.3l-.3.2v.3l-.2.2v.3l-.3.2v.3l-.2.2v.5l-.3.3v.2l-.2.3v.2l-.3.3v.2l-.2.3v.4l-.3.3v.5l-.2.3v.2l-.3.3v.2l-.2.3v.4l-.3.3v.3l-.2.2v.3l-.3.2v.3l-.2.2v.5l-.3.3v.2l-.2.3v.4l-.3.3v.3l-.2.2v.5l-.3.3v.2l-.2.3v.2l-.3.3v.2l-.2.3v.2l-.3.3v.4l-.2.3v.3l-.3.2v.3l-.2.2v.5l-.3.3v.2l-.2.3v.4l-.3.3v.3l-.2.2v.3l-.3.2v.3l-.2.2v.3l-.3.2v.3l-.2.2v.3l-.3.2v.5l-.2.3v.4l-.3.3v.3l-.2.2v.3l-.3.2v.5l-.2.3v.2l-.3.3v.2l-.2.3v.2l-.3.3v.2l-.2.3v.4l-.3.3v.3l-.2.2v.3l-.3.2v.5l-.2.3v.2l-.3.3v.2l-.2.3v.2l-.3.3v.4l-.2.3v.3l-.3.2v.5l-.2.3v.2l-.3.3v.2l-.2.3v.4l-.3.3v.5l-.2.3v.2l-.3.3v.2l-.2.3v.2l-.3.3v.2l-.2.3v.4l-.3.3v.3l-.2.2v.5l-.3.3v.2l-.2.3v.4l-.3.3v.3l-.2.2v.3l-.3.2v.3l-.2.2v.3l-.3.2v.5l-.2.3v.2l-.3.3v.4l-.2.3v.5l-.3.3v.2l-.2.3v.2l-.3.3v.2l-.2.3v.4l-.3.3v.5l-.2.3v.2l-.3.3v.2l-.2.3v.4l-.3.3v.3l-.2.2v.5l-.3.3v.2l-.2.3v.4l-.3.3v.3l-.2.2v.3l-.3.2v.3l-.2.2v.5l-.3.3v.4l-.2.3v.3l-.3.2v.5l-.2.3v.2l-.3.3v.4l-.2.3v.3l-.3.2v.3l-.2.2v.3l-.3.2v.5l-.2.3v.2l-.3.3v.2l-.2.3v.4l-.3.3v.5l-.2.3v.2l-.3.3v.2l-.2.3v.4l-.3.3v.5l-.2.3v.2l-.3.3v.2l-.2.3v.4l-.3.3v.5l-.2.3v.2l-.3.3v.4l-.2.3v.3l-.3.2v.5l-.2.3v.2l-.3.3v.2l-.2.3v.2l-.3.3v.4l-.2.3v.5l-.3.3v.2l-.2.3v.4l-.3.3v.3l-.2.2v.5l-.3.3v.2l-.2.3v.2l-.3.3v.2l-.2.3v.4l-.3.3v.3l-.2.2v.5l-.3.3v.2l-.2.3v.4l-.3.3v.3l-.2.2v.3l-.3.2v.5l-.2.3v.2l-.3.3v.4l-.2.3v.3l-.3.2v.3l-.2.2v.5l-.3.3v.4l-.2.3v.3l-.3.2v.5l-.2.3v.2l-.3.3v.2l-.2.3v.2l-.3.3v.4l-.2.3v.5l-.3.3v.2l-.2.3v.4l-.3.3v.5l-.2.3v.2l-.3.3v.4l-.2.3v.3l-.3.2v.5l-.2.3v.2l-.3.3v.2l-.2.3v.4l-.3.3v.5l-.2.3v.2l-.3.3v.4l-.2.3v.5l-.3.3v.2l-.2.3v.4l-.3.3v.3l-.2.2v.5l-.3.3v.2l-.2.3v.4l-.3.3v.3l-.2.2v.5l-.3.3v.4l-.2.3v.3l-.3.2v.3l-.2.2v.3l-.3.2v.8l-.2.2v.3l-.3.2v.5l-.2.3v.4l-.3.3v.5l-.2.3v.2l-.3.3v.2l-.2.3v.2l-.3.3v.4l-.2.3v.3l-.3.2v.5l-.2.3v.2l-.3.3v.4l-.2.3v.5l-.3.3v.2l-.2.3v.4l-.3.3v.5l-.2.3v.2l-.3.3v.2l-.2.3v.2l-.3.3v.4l-.2.3v.3l-.3.2v.5l-.2.3v.2l-.3.3v.4l-.2.3v.5l-.5.5v.5l-.3.3v.2l-.2.3v.4l-.3.3v.5l-.2.3v.2l-.3.3v.5l-.2.2v.3l-.3.2v.3l-.2.2v.5l-.3.3v.2l-.2.3v.5l-.3.2v.3l-.2.2v.3l-.3.2v.5l-.2.3v.2l-.3.3v.5l-.2.2v.3l-.3.2v.3l-.2.2v.5l-.3.3v.2l-.2.3v.2l-.3.3v.2l-.2.3v.5l-.3.2v.3l-.2.2v.5l-.3.3v.2l-.2.3v.2l-.3.3v.2l-.2.3v.5l-.3.2v.3l-.2.2v.3l-.3.2v.5l-.2.3v.2l-.3.3v.2l-.2.3v.5l-.3.2v.3l-.2.2v.5l-.3.3v.2l-.2.3v.2l-.3.3v.2l-.2.3v.2l-.3.3v.5l-.2.2v.3l-.3.2v.5l-.2.3v.2l-.3.3v.2l-.2.3v.2l-.3.3v.2l-.2.3v.5l-.3.2v.3l-.2.2v.3l-.3.2v.5l-.2.3v.2l-.3.3v.5l-.2.2v.3l-.3.2v.3l-.2.2v.3l-.3.2v.5l-.2.3v.2l-.3.3v.2l-.2.3v.2l-.3.3v.5l-.2.2v.3l-.3.2v.5l-.2.3v2.2l.2.3v.2l.5.5h.3l.2.3h1l.3.2h6.2l.3.3h14l.2-.3h8.5l.3-.2h1.7l.3-.3h.7l.3-.2h.2l.3-.3h.2l.8-.7v-.3l.5-.5v-.2l.5-.5v-.5l.2-.3v-.2l.3-.3v-.5l.2-.2v-.3l.3-.2v-.5l.2-.3v-.2l.3-.3v-.5l.2-.2v-.3l.3-.2v-.5l.2-.3v-.2l.3-.3v-.2l.2-.3v-.5l.3-.2v-.3l.2-.2v-.3l.3-.2v-.5l.2-.3v-.5l.3-.2v-.5l.2-.3v-.2l.5-.5v-.5l.3-.3v-.5l.2-.2v-.3l.3-.2v-.5l.2-.3v-.5l.3-.2v-.5l.5-.5v-.3l.2-.2v-.5l.3-.3v-.5l.2-.2v-.3l.3-.2v-.3l.2-.2v-.5l.3-.3v-.5l.2-.2v-.5l.3-.3v-.2l.2-.3v-.2l.3-.3v-.5l.2-.2v-.3l.5-.5h.3l.5-.5h.2l.3-.2H665l.3.2h.2l.8.8v.5l.2.2v24.3l.3.2v.8l.2.2v.3l.5.5h.3l.2.2h29.8l.2-.2h.5l.8-.8v-.2l.2-.3v-18.5l-.2-.2v-15.8l-.3-.2v-15.8l-.2-.2v-19.8l-.3-.2v-8.8l-.2-.2v-6.8l-.3-.2V454l-.2-.2v-20.3l-.3-.2v-23l-.2-.3v-11.2l-.3-.3v-11.2l-.2-.3v-3.2l-.3-.3v-2.2l-.2-.3v-.7l-.3-.3v-.5l-.2-.2v-.3l-.3-.2v-.3l-1-1h-.2l-.3-.2h-31.2zm5 55.7.3-.2h.5l.7.7v17.8l-.2.2v13.8l-.3.2v16l-.2.3v5.4l-.3.3v1l-.2.3v.4L666 491h-.2l-.3.3h-.7l-.3.2h-10.2l-.3.3h-5.5l-1-1v-1l.3-.3v-.7l.2-.3v-.5l.3-.2v-.8l.2-.2v-.8l.3-.2v-.8l.2-.2v-.3l.3-.2v-.6l.2-.2v-.5l.3-.2v-.6l.2-.2v-.2l.3-.3v-.5l.2-.2v-.8l.3-.2v-.6l.2-.2v-.2l.3-.3v-.2l.2-.3v-.5l.3-.2v-.8l.2-.2v-.6l.3-.2v-.2l.2-.3v-.7l.3-.3v-.5l.2-.2v-.3l.3-.2v-.6l.2-.2v-.5l.3-.2v-.8l.2-.2v-.3l.3-.2v-.6l.2-.2v-.5l.3-.2v-.8l.2-.2v-.3l.3-.2v-.3l.2-.2v-.6l.3-.2v-.7l.2-.3v-.5l.3-.2v-.3l.2-.2v-.6l.3-.2v-.7l.2-.3v-.5l.3-.2v-.3l.2-.2v-.8l.3-.2v-.6l.2-.2v-.2l.3-.3v-.2l.2-.3v-.5l.3-.2v-.8l.2-.2v-.6l.3-.2v-.2l.2-.3v-.7l.3-.3v-.7l.2-.3v-.2l.3-.3v-.2l.2-.3v-.5l.3-.2v-.8l.2-.2v-.3l.3-.2v-.6l.2-.2v-.2l.3-.3v-.7l.2-.3v-.2l.3-.3v-.2l.2-.3v-.5l.3-.2v-.8l.2-.2v-.3l.3-.2v-.6l.2-.2v-.2l.3-.3v-.5l.2-.2v-.6l.3-.2v-.5l.2-.2v-.6l.3-.2v-.2l.2-.3v-.5l.3-.2v-.6l.2-.2v-.2l.3-.3v-.2l.2-.3v-.7l.3-.3v-.5l.2-.2v-.3l.3-.2v-.6l.5-.4zm-161.2-55.7-.3.2h-.2l-.3.3v.2l-.2.3v9.2l-.3.3v61l.3.2v68.3l.2.2v19.8l.3.2v3l.2.3v6.5l.3.2v2.5l.2.3v.2l.8.8h17.4l.3.2h12.8l.2-.2h3.5l.3-.3h.5l.5-.5h.2l.5-.5v-.2l.5-.5v-.3l.3-.2v-.3l.2-.2v-.3l.3-.2v-.3l.2-.2v-.3l.3-.2v-.5l.2-.3v-.2l.3-.3v-.2l.2-.3v-.2l.3-.3v-.2l.2-.3v-.5l.3-.2v-.3l.2-.2v-.3l.3-.2v-.3l.2-.2v-.5l.3-.3v-.2l.2-.3v-.2l.3-.3v-.5l.2-.2v-.3l.3-.2v-.5l.5-.5v-.3l.2-.2v-.3l.3-.2v-.5l.2-.3v-.2l.3-.3v-.2l.2-.3v-.5l.3-.2v-.3l.2-.2v-.3l.3-.2v-.3l.2-.2v-.3l.3-.2v-.5l.2-.3v-.2l.3-.3v-.2l.2-.3v-.5l.3-.2v-.3l.2-.2v-.3l.3-.2v-.3l.2-.2v-.5l.3-.3v-.2l.2-.3v-.2l.3-.3v-.2l.2-.3v-.2l.3-.3v-.5l.2-.2v-.3l.3-.2v-.3l.2-.2v-.3l.3-.2v-.5l.2-.3v-.2l.3-.3v-.2l.2-.3v-.2l.3-.3v-.5l.2-.2v-.3l.3-.2v-.3l.2-.2v-.5l.3-.3v-.2l.2-.3v-.2l.3-.3v-.2l.2-.3v-.2l.3-.3v-.5l.2-.2v-.3l.3-.2v-.3l.2-.2v-.3l.3-.2v-.3l.2-.2v-.5l.3-.3v-.2l.2-.3v-.2l.3-.3v-.2l.2-.3v-.2l.3-.3v-.5l.2-.2v-.3l.3-.2v-.3l.2-.2v-.6l.3-.2v-.2l.2-.3v-.2l.3-.3v-.2l.2-.3v-.2l.3-.3v-.2l.2-.3v-.5l.3-.2v-.3l.2-.2v-.3l.3-.2v-.3l.2-.2v-.6l.3-.2v-.2l.2-.3v-.2l.3-.3v-.2l.2-.3v-.5l.3-.2v-.3l.2-.2v-.3l.3-.2v-.3l.2-.2v-.6l.3-.2v-.2l.2-.3v-.2l.3-.3v-.2l.2-.3v-.5l.3-.2v-.3l.2-.2v-.3l.5-.5v-.5l.3-.2v-.3l.2-.2v-.6l.3-.2v-.2l.2-.3v-.5l.3-.2v-.3l.2-.2v-.3l.3-.2v-.3l.2-.2v-.3l.3-.2v-.6l.2-.2v-.2l.3-.3v-.2l.2-.3v-.2l.3-.3v-.5l.2-.2v-.3l.3-.2v-.3l.2-.2v-.3l.3-.2v-.6l.2-.2v-.2l.3-.3v-.2l.2-.3v-.2l.3-.3v-.5l.2-.2v-.3l.3-.2v-.3l.2-.2v-.6l.3-.2v-.5l.5-.5v-.2l.2-.3v-.2l.3-.3v-.5l.2-.2v-.3l.3-.2v-.3l.2-.2v-.6l.3-.2v-.2l.2-.3v-.2l.3-.3v-.2l.2-.3v-.2l.3-.3v-.5l.2-.2v-.3l.3-.2v-.3l.2-.2v-.3l.3-.2v-.3l.2-.2v-.6l.3-.2v-.2l.2-.3v-.2l.3-.3v-.2l.2-.3v-.5l.3-.2v-.3l.5-.5v-.5l.2-.2v-.3l.3-.2v-.6l.2-.2v-.2l.3-.3v-.2l.2-.3v-.2l.3-.3v-.2l.2-.3v-.2l.3-.3v-.2l.2-.3v-.2l.3-.3v-.5l.2-.2v-.3l.3-.2v-.3l.2-.2v-.3l.3-.2v-.3l.2-.2v-.6l.3-.2v-.2l.2-.3v-.2l.3-.3v-.2l.2-.3v-.2l.3-.3v-.5l.2-.2v-.3l.3-.2v-.3l.2-.2v-.6l.3-.2v-.2l.2-.3v-.2l.3-.3v-.2l.2-.3v-.2l.3-.3v-.2l.2-.3v-.5l.3-.2v-.3l.2-.2v-.6l.3-.2v-.2l.2-.3v-.2l.5-.6v-.4l.3-.3v-.5l.2-.2v-.3l.3-.2v-.3l.2-.2v-.3l.3-.2v-.6l.2-.2v-.2l.3-.3v-.2l.2-.3v-.2l.3-.3v-.5l.2-.2v-.3l.3-.2v-.3l.2-.2v-.3l.3-.2v-.6l.2-.2v-.2l.3-.3v-.2l.2-.3v-.5l.3-.2v-.6l.5-.4v-.3l.2-.2v-.3l.3-.2v-.6l.2-.2v-.5l.3-.2v-.3l.2-.2v-.6l.3-.2v-.2l.2-.3v-.2l.3-.3v-.2l.2-.3v-.2l.3-.3v-.5l.2-.2v-.6l.3-.2v-.2l.2-.3v-.2l.3-.3v-.5l.2-.2v-.3l.3-.2v-.3l.2-.2v-.6l.3-.2v-.2l.2-.3v-.5l.5-.5v-.2l.3-.3v-.5l.2-.2v-.6l.3-.2v-.2l.2-.3v-.2l.3-.3v-.5l.2-.2v-.3l.3-.2v-.3l.5-.5v-.5l.2-.2v-.3l.3-.2v-.6l.2-.2v-.2l.3-.3v-.2l.2-.3v-.5l.3-.2v-.3l.2-.2v-.3l.3-.2v-.3l.2-.2v-.3l.3-.2v-.3l.2-.2v-.6l.3-.2v-.2l.2-.3v-.2l.3-.3v-.2l.2-.3v-.5l.3-.2v-.3l.2-.2v-.3l.3-.2v-.3l.2-.2v-.3l.3-.2v-.6l.2-.2v-.2l.3-.3v-.5l.2-.2v-.3l.3-.2v-.6l.2-.2v-.2l.3-.3v-.2l.2-.3v-.2l.3-.3v-.5l.2-.2v-.3l.3-.2v-.3l.2-.2v-.6l.3-.2v-.2l.2-.3v-.2l.3-.3v-.5l.2-.2v-.6l.3-.2v-.2l.2-.3v-.2l.3-.3v-.2l.2-.3v-.5l.3-.2v-.6l.2-.2v-.2l.3-.3v-.2l.2-.3v-.5l.3-.2v-.6l.2-.2v-.2l.3-.3v-.2l.2-.3v-.2l.3-.3v-.5l.2-.2v-.6l.3-.2v-.2l.2-.3v-.5l.3-.2v-.3l.2-.2v-.3l.3-.2v-.3l.2-.2v-.6l.3-.2v-.5l.2-.2v-.3l.3-.2v-.3l.2-.2v-.6l.3-.2v-.5l.2-.2v-.3l.3-.2v-.6l.2-.2v-.2l.3-.3v-.7l.2-.3v-.5l.3-.2V379l-.3-.2v-.3l-1-1h-.5l-.2-.2H584l-.2.2h-.5l-.3.3h-.2l-.5.4h-.3l-.5.6v.2l-.5.5v.3l-.2.2v.3l-.3.2v.3l-.5.4v.6l-.2.2v.3l-.3.2v.5l-.2.3v.2l-.3.3v.4l-.2.3v.5l-.3.3v.2l-.2.3v.4l-.3.3v.5l-.2.3v.2l-.3.3v.4l-.2.3v.3l-.3.2v.5l-.2.3v.4l-.3.3v.5l-.2.3v.4l-.3.3v.3l-.2.2v.3l-.3.2v.5l-.2.3v.2l-.3.3v.4l-.2.3v.5l-.3.3v.4l-.2.3v.5l-.3.3v.4l-.2.3v.3l-.3.2v.3l-.2.2v.5l-.3.3v.4l-.2.3v.3l-.3.2v.3l-.2.2v.5l-.3.3v.4l-.2.3v.5l-.3.3v.2l-.2.3v.4l-.3.3v.5l-.2.3v.4l-.3.3v.3l-.2.2v.3l-.3.2v.5l-.2.3v.4l-.3.3v.3l-.2.2v.8l-.3.2v.3l-.2.2v.5l-.3.3v.2l-.2.3v.2l-.3.3v.4l-.2.3v.5l-.3.3v.4l-.2.3v.5l-.3.3v.4l-.2.3v.3l-.3.2v.3l-.2.2v.5l-.3.3v.2l-.2.3v.4l-.3.3v.3l-.2.2v.5l-.3.3v.4l-.2.3v.3l-.3.2v.5l-.2.3v.2l-.3.3v.4l-.2.3v.3l-.3.2v.3l-.2.2v.5l-.3.3v.2l-.2.3v.4l-.3.3v.5l-.2.3v.2l-.3.3v.4l-.2.3v.3l-.3.2v.5l-.2.3v.2l-.3.3v.2l-.2.3v.4l-.3.3v.5l-.2.3v.2l-.3.3v.4l-.2.3v.5l-.3.3v.4l-.2.3v.3l-.3.2v.3l-.2.2v.5l-.3.3v.2l-.2.3v.4l-.3.3v.5l-.2.3v.4l-.3.3v.3l-.2.2v.5l-.3.3v.4l-.2.3v.3l-.3.2v.5l-.2.3v.2l-.3.3v.2l-.2.3v.4l-.3.3v.5l-.2.3v.4l-.3.3v.3l-.2.2v.5l-.3.3v.2l-.2.3v.4l-.3.3v.3l-.2.2v.5l-.3.3v.2l-.2.3v.4l-.3.3v.5l-.2.3v.2l-.3.3v.4l-.2.3v.3l-.3.2v.5l-.2.3v.2l-.3.3v.2l-.2.3v.4l-.3.3v.5l-.2.3v.4l-.3.3v.3l-.2.2v.5l-.3.3v.4l-.2.3v.3l-.3.2v.3l-.2.2v.3l-.3.2v.5l-.2.3v.2l-.3.3v.4l-.2.3v.5l-.3.3v.4l-.2.3v.3l-.3.2v.3l-.2.2v.3l-.3.2v.8l-.2.2v.3l-.3.2v.3l-.2.2v.5l-.3.3v.4l-.2.3v.3l-.3.2v.3l-.2.2v.5l-.3.3v.4l-.2.3v.3l-.3.2v.3l-.2.2v.3l-.3.2v.5l-.2.3v.4l-.3.3v.3l-.2.2v.5l-.3.3v.4l-.2.3v.3l-.3.2v.3l-.2.2v.3l-.3.2v.5l-.2.3v.2l-.3.3v.4l-.2.3v.3l-.3.2v.5l-.2.3v.2l-.3.3v.2l-.2.3v.2l-.3.3v.4l-.2.3v.3l-.3.2v.5l-.2.3v.2l-.3.3v.4l-.2.3v.3l-.3.2v.5l-.2.3v.2l-1 1h-.5l-.5-.5v-.5l-.3-.2v-.3l.3-.2v-4.3l.2-.2v-7l.3-.3v-12l.2-.2v-3.6l.3-.2v-3.5l.2-.2v-4.6l.3-.2v-9.2l.2-.3v-9.5l.3-.2v-4.6l.2-.2v-4.7l.3-.3v-8.2l.2-.3v-8.2l.3-.3V402l.2-.2V398l.3-.2V393l.2-.2v-8.6l.3-.2v-5l-.3-.2v-.6l-.2-.2v-.2l-.3-.3h-.2l-.3-.2h-32.5zm-243.5 0-.3.2h-.7l-.3.3h-.2L260 379v.3l-.2.2v.5l-.3.3v.7l-.2.3v.7l-.3.3v.7l-.2.3v.7l-.3.3v1l-.2.2v1l-.3.3v.7l-.2.3v1l-.3.2v.8l-.2.2v1.5l-.3.3v1.2l-.2.3v1l-.3.2v1l-.2.3v1.4l-.3.3v1.3l-.2.2v1l-.3.3v.7l-.2.3v1.2l-.3.3v1.4l-.2.3v1.3l-.3.2v1.3l-.2.2v1.5l-.3.3v1l-.2.2v.8l-.3.2v1l-.2.3v1l-.3.2v1.8l-.2.2v1.3l-.3.2v1l-.2.3v1.4l-.3.3v1.3l-.2.2v1l-.3.3v.7l-.2.3v1.2l-.3.3v1.2l-.2.3v.7l-.3.3v.7l-.2.3v1.2l-.3.3v1.4l-.2.3v1l-.3.3v1l-.2.2v1.3l-.3.2v1.5l-.2.3v1l-.3.2v.8l-.2.2v.8l-.3.2v1.5l-.2.3v1.4l-.3.3v1l-.2.3v1.2l-.3.3v1.4l-.2.3v1l-.3.3v.7l-.2.3v1l-.3.2v1.3l-.2.2v1.3l-.3.2v1l-.2.3v1l-.3.2v1.3l-.2.2v1.3l-.3.2v1l-.2.3v.7l-.3.3v1l-.2.2v1.3l-.3.2v1.3l-.2.2v1l-.3.3v1.2l-.2.3v1.2l-.3.3v1l-.2.2v1l-.3.3v1.2l-.2.3v1.2l-.3.3v.7l-.2.3v1l-.3.2v1l-.2.3v1.2l-.3.3v1.4l-.2.3v1.3l-.3.2v1l-.2.3v1l-.3.2v1.3l-.2.2v1.5l-.3.3v1.2l-.2.3v1.2l-.3.3v1.7l-.2.3v1.7l-.3.3v1.4l-.2.3v1.5l-.3.3v1.4l-.2.3v1.5l-.3.3v1l-.2.2v1l-.3.3v1l-.2.2v1.5l-.3.3v1.4l-.2.3v1.3l-.3.2v1.5l-.2.3v1.2l-.3.3v1.2l-.2.3v.7l-.3.3v.5l-.2.2v1l-.3.3v1.2l-.2.3v1l-.3.2v1l-.2.3v1.2l-.3.3v1l-.2.2v.8l-.3.2v1l-.2.3v1l-.3.2v1.3l-.2.2v1l-.3.3v.7l-.2.3v1.2l-.3.3v1.5l-.2.2v1.3l-.3.2v1l-.2.3v2l-.3.2v2l-.2.3v1.5l-.3.2v.8l.3.2v.5l.7.8h.3l.2.2h1l.3.3h1.7l.3.2h8.7l.3.3h9l.2.2h7.5l.3-.2h.4l.3-.3h.3l1.4-1.5v-.2l.3-.3v-.5l.3-.2v-.5l.2-.3v-.5l.3-.2v-.5l.2-.3v-1.2l.3-.3v-.7l.2-.3v-1l.3-.2v-1.3l.2-.2V540l.3-.2v-1.3l.2-.2v-1l.3-.3v-1.2l.2-.3V534l.3-.2V532l.2-.2v-1.3l.3-.2V529l.2-.2v-1l.3-.3v-1.2l.2-.3v-1.2l.3-.3V523l.2-.2v-1.3l.3-.2v-1.5l.2-.3v-1.7l.3-.3v-1.2l.2-.3v-1l.3-.2v-1.3l.2-.2v-1.8l.3-.2v-1l.2-.3v-1l.3-.2v-1.3l.2-.2v-1.8l.3-.2v-1.6l.2-.2v-1l.3-.2v-1.6l.2-.2v-2.2l.3-.3v-1.2l.2-.3v-1l.3-.2v-1l.2-.3v-1.7l.3-.3v-2l.2-.2v-1.3l.3-.2V487l.2-.2v-2.3l.3-.2v-1.6l.2-.2v-1l.3-.2v-.8l.2-.2v-1.8l.3-.2v-2l.2-.3v-1.2l.3-.3v-1.2l.2-.3v-2.7l.3-.3v-1.5l.2-.2v-1l.3-.3v-1l.2-.2v-2l.3-.3v-2l.2-.2v-1l.3-.3v-1l.2-.2v-1.6l.3-.2v-3l.2-.2V452l.3-.2v-2.3l.2-.2v-2.8l.3-.2v-.8l.4-.5h.3l.8.8v.4l.2.3v1.3l.3.2v1.8l.2.2v1.8l.3.2v2.3l.2.2v1.8l.3.2v1.5l.2.3v1l.3.2v1.3l.2.2v2l.3.3v2.2l.2.3v2l.3.2v2l.2.3v2l.3.2v2l.2.3v1.7l.3.3v1.2l.2.3v1.7l.3.3v1.7l.2.3v1.4l.3.3v1.5l.2.3v1.7l.3.3v2.4l.2.3v1.8l.3.2v1l.2.3v1.2l.3.3v1.4l.2.3v2l.3.3v1.2l.2.3v1.4l.3.3v1.8l.2.2v1.5l.3.3v1.2l.2.3v1.2l.3.3v1.7l.2.3v1.7l.3.3v1.2l.2.3v1l.3.2v1.5l.2.3v2l.3.2v1.3l.2.2v1l.3.3v1.5l.2.2v1.8l.3.2v1.3l.2.2v1l.3.3v.7l.2.3v1.7l.3.3v1.5l.2.2v1.3l.3.2v1.8l.2.2v2l.3.3v1l.2.2v.8l.3.2v.8l.2.2v1.3l.3.2v1l.2.3v.7l.3.3v.5l.2.2v.8l.3.2v.3l.2.2v.3l.5.5v.2l.3.3h.2l.3.2h.2l.3.3h.7l.3.2h.7l.3.3h2l.2.2h7.3l.2.3h6.8l.2.2h3.3l.2-.2h7.3l.2-.3h1.5l.3-.2h.4l.3-.3h.5l.3-.2h.2l.3-.3h.2l.3-.2h.2l.3-.3h.2l1.5-1.5v-.2l.5-.5v-.3l.3-.2v-.3l.2-.2v-.5l.3-.3v-.5l.2-.2v-.5l.3-.3v-1l.2-.2v-1.5l.3-.3v-1l.2-.2v-.5l.3-.3v-.7l.2-.3v-1l.3-.2v-1.5l.2-.3v-1l.3-.2v-.8l.2-.2v-1.8l.3-.2V530l.2-.2v-.5l.3-.3v-.7l.2-.3v-1l.3-.2v-1.5l.2-.3v-1l.3-.2v-.8l.2-.2v-1.3l.3-.2V520l.2-.2v-.8l.3-.2v-.5l.2-.3v-1.2l.3-.3v-1.2l.2-.3v-.7l.3-.3v-.7l.2-.3v-1l.3-.2V510l.2-.2v-.8l.3-.2v-.8l.2-.2v-1.3l.3-.2V505l.2-.2v-.6l.3-.2v-.7l.2-.3v-.5l.3-.2v-1.6l.2-.2v-1.2l.3-.3v-.7l.2-.3v-1l.3-.2V495l.2-.2v-.8l.3-.2v-.6l.2-.2v-1l.3-.2v-1.3l.2-.2V489l.3-.2v-.8l.2-.2v-1l.3-.3v-1.2l.2-.3v-1.2l.3-.3v-.7l.2-.3v-.7l.3-.3v-1.2l.2-.3v-1.5l.3-.2v-.8l.2-.2v-.8l.3-.2v-1l.2-.3v-1.5l.3-.2v-1l.2-.3v-1l.3-.2v-1l.2-.3v-1l.3-.2v-.8l.2-.2v-1l.3-.3v-1l.2-.2v-1.3l.3-.2V462l.2-.2v-1l.3-.3v-1l.2-.2v-1l.3-.3v-1l.2-.2v-1l.3-.3v-1l.2-.2v-.8l.3-.2v-1l.2-.3v-1.5l.3-.2v-1l.2-.3v-.7l.3-.3v-1l.2-.2v-1.6l.3-.2v-1l.2-.2v-.8l.3-.2v-.8l.2-.2v-1.6l.3-.2v-1l.2-.2v-1l.3-.3v-1l.2-.2v-1.6l.3-.2v-1l.2-.2v-.6l.3-.2v-.7l.2-.3v-1l.3-.2v-1.6l.2-.2v-1l.3-.2v-.8l.2-.2v-1.8l.3-.2v-1l.2-.3v-.7l.3-.3v-.7l.2-.3v-1.2l.3-.3v-1.2l.2-.3v-.7l.3-.3v-.7l.2-.3v-1l.3-.2v-1.6l.2-.2v-.7l.3-.3v-.7l.2-.3v-1.7l.3-.3v-1.2l.2-.3v-.7l.3-.3v-.5l.2-.2v-1l.3-.3V403l.2-.2v-1l.3-.3v-.7l.2-.3V399l.3-.2v-1.6l.2-.2v-.5l.3-.2v-.8l.2-.2v-1l.3-.3v-1.5l.2-.2v-1l.3-.3v-.7l.2-.3v-1l.3-.2v-2.3l.2-.2v-.8l.3-.2v-1l.2-.3v-1.7l.3-.3v-3.5l-.3-.2v-.3l-.5-.5h-.2l-.3-.2h-29.7l-.3.2h-.5l-.2.3h-.3l-.5.4h-.2l-.3.3v.3l-.5.4v.6l-.2.2v.3l-.3.2v.5l-.2.3v.2l-.3.3v.7l-.2.3v.4l-.3.3v.3l-.2.2v.5l-.3.3v.7l-.2.3v1.2l-.3.3v1l-.2.2v1l-.3.3v1.2l-.2.3v1l-.3.2v1l-.2.3v1.2l-.3.3v1.2l-.2.3v1.4l-.3.3v1l-.2.3v1.2l-.3.3v1.2l-.2.3v1.4l-.3.3v1.3l-.2.2v1l-.3.3v1l-.2.2v1.3l-.3.2v1.3l-.2.2v1.3l-.3.2v1.3l-.2.2v1.8l-.3.2v1.3l-.2.2v1.3l-.3.2v1l-.2.3v1.2l-.3.3v1l-.2.2v1l-.3.3v1l-.2.2v1.3l-.3.2v1.8l-.2.2v1.8l-.3.2v1.3l-.2.2v1.3l-.3.2v1.3l-.2.2v1.8l-.3.2v1.5l-.2.3v1.2l-.3.3v1.4l-.2.3v2l-.3.3v1.7l-.2.3v1.2l-.3.3v1.7l-.2.3v2.2l-.3.3v1.4l-.2.3v1.3l-.3.2v1.5l-.2.3v2.2l-.3.3v2.4l-.2.3v1.8l-.3.2v2.3l-.2.2v2.8l-.3.2v2l-.2.3v1.4l-.3.3v1.5l-.2.3v2.2l-.3.3v3l-.2.2v1.8l-.3.2v2.8l-.2.2v4.3l-.3.2v1l-.5.5h-.2l-.6-.5v-.5l-.2-.2v-2l-.2-.3v-1.2l-.3-.3v-1.2l-.2-.3v-2l-.3-.2v-2.3l-.2-.2V481l-.3-.2v-1l-.2-.3v-1.2l-.3-.3v-2l-.2-.2v-1.6l-.3-.2v-1.2l-.2-.3v-1.2l-.3-.3v-1.5l-.2-.2v-1.8l-.3-.2v-1.6l-.2-.2v-1.7l-.3-.3v-1.2l-.2-.3v-1.5l-.3-.2v-1.6l-.2-.2v-1.2l-.3-.3v-1.7l-.2-.3v-1.7l-.3-.3v-1.5l-.2-.2V450l-.3-.2v-1.3l-.2-.2v-1.6l-.3-.2V445l-.2-.2v-1.6l-.3-.2v-1.2l-.2-.3v-1l-.3-.2v-1.8l-.2-.2v-1.8l-.3-.2v-1.6l-.2-.2v-1l-.3-.2v-2l-.2-.3v-1.7l-.3-.3v-1.2l-.2-.3v-1l-.3-.2v-1.6l-.2-.2v-2l-.3-.2v-1.6l-.2-.2v-1l-.3-.2v-2l-.2-.3v-2l-.3-.2v-1l-.2-.3v-1l-.3-.2v-1l-.2-.3v-2.2l-.3-.3v-1.7l-.2-.3v-1l-.3-.2V404l-.2-.2v-2.3l-.3-.2v-1.6l-.2-.2v-1l-.3-.2v-1.6l-.2-.2v-2l-.3-.2v-1l-.2-.3v-.7l-.3-.3v-.7l-.2-.3v-1.7l-.3-.3v-1.5l-.2-.2v-.8l-.3-.2v-.8l-.2-.2v-1l-.3-.3v-1l-.2-.2v-.6l-.3-.2v-.5l-.2-.2v-.8l-.3-.2v-.8l-.2-.2v-.3l-.3-.2v-.3l-.7-.7h-.3l-.2-.3h-.6l-.2-.2h-32zm173.7-4-.2.2h-1.6l-.2.3H433l-.2.2h-1.3l-.2.3h-.8l-.2.2h-.8l-.2.3h-.6l-.2.2h-1l-.2.3h-.8l-.2.2h-.6l-.2.3h-.7l-.3.2h-.7l-.3.3h-.5l-.2.2h-.3l-.2.3h-.3l-.2.2h-.6l-.2.3h-.5l-.2.2h-.3l-.2.3h-.3l-.2.2h-.6l-.2.3h-.5l-.2.2h-.3l-.2.3h-.3l-.2.2h-.3l-.2.3h-.3l-.2.2h-.3l-.2.3h-.3l-.2.2h-.3l-.5.5h-.2l-.3.3h-.2l-.3.2h-.2l-.6.5h-.2l-.7.8h-.3l-.2.2h-.3l-.5.5h-.2l-.8.8h-.2l-1 1h-.3l-1 1h-.2l-2 2h-.3l-.5.4v.3l-3.2 3.3v.2l-1.3 1.3v.2l-.7.8v.2l-1 1v.3l-.6.4v.3l-.4.5v.3l-.6.4v.3l-.7.8v.2l-.2.3v.2l-.6.5v.3l-.4.4v.3l-.3.3v.2l-.5.5v.3l-.2.2v.3l-.6.4v.3l-.2.3v.2l-.2.3v.2l-.3.3v.2l-.2.3v.2l-.3.3v.2l-.2.3v.2l-.3.3v.2l-.2.3v.2l-.3.3v.2l-.2.3v.2l-.3.3v.4l-.2.3v.3l-.3.2v.3l-.2.2v.5l-.3.3v.2l-.2.3v.2l-.3.3v.4l-.2.3v.3l-.3.2v.5l-.2.3v.4l-.3.3v.5l-.2.3v.4l-.3.3v.3l-.2.2v.5l-.3.3v.4l-.2.3v.3l-.3.2v.5l-.2.3v.7l-.3.3v.7l-.2.3v.4l-.3.3v.8l-.2.2v.8l-.3.2v.8l-.2.2v.8l-.3.2v.5l-.2.3v1l-.3.2v1.3l-.2.2v1l-.3.3v1.2l-.2.3v1.7l-.3.3v1l-.2.2v.8l-.3.2v.8l-.2.2v1l-.3.3v1.4l-.2.3v.8l-.3.2v1l-.2.3v1l-.3.2v1l-.2.3v.7l-.3.3v.7l-.2.3v.7l-.3.3v1l-.2.2v.5l-.3.3v.7l-.2.3v1l-.3.2v1.3l-.2.2v.8l-.3.2v.8l-.2.2v1l-.3.3v1.2l-.2.3v.7l-.3.3v.4l-.2.3v.8l-.3.2v1.3l-.2.2v1.3l-.3.2v1l-.2.3v1l-.3.2v1.3l-.2.2v.8l-.3.2v.8l-.2.2v1l-.3.3v1.2l-.2.3v1.2l-.3.3v1l-.2.2v1l-.3.3v1.7l-.2.3v1.2l-.3.3v1l-.2.2v.8l-.3.2v1.3l-.2.2v1.8l-.3.2v1.3l-.2.2v1.3l-.3.2v1.3l-.2.2v2.3l-.3.2v2l-.2.3v1.4l-.3.3v1.8l-.2.2v3l-.3.3v3l-.2.2v3.8l-.3.2v1l.3.3v4.4l.2.3v2.3l.3.2v1.8l.2.2v1.5l.3.3v1l.2.2v1l.3.3v.7l.2.3v.7l.3.3v.5l.2.2v.5l.3.3v.5l.2.2v.5l.3.3v.5l.2.2v.3l.3.2v.5l.2.3v.5l.3.2v.3l.2.2v.3l.3.2v.3l.2.2v.5l.3.3v.2l.4.5v.3l.3.2v.3l.5.5v.2l.3.3v.2l.2.3v.2l.8.8v.2l.7.8v.2l.8.8v.2l.7.8v.2l1.3 1.3v.2l1.4 1.5h.3l1.5 1.5h.3l.4.5h.3l.5.5h.3l.4.5h.3l.3.3h.2l.5.5h.3l.4.5h.6l.4.5h.6l.2.2h.3l.2.3h.5l.3.2h.2l.5.5h.5l.3.3h.4l.3.2h.5l.3.3h.4l.3.2h.8l.2.3h.8l.2.2h.5l.3.3h.4l.3.2h1.3l.2.3h1.3l.2.2h1l.3.3h1l.2.2h1.8l.2.3h18l.3-.3h2l.2-.2h.8l.2-.3h.8l.2-.2h1.3l.2-.3h1l.3-.2h.7l.3-.3h.4l.3-.2h.8l.2-.3h.8l.2-.2h.5l.3-.3h.2l.3-.2h.4l.3-.3h.3l.2-.2h.3l.2-.3h.5l.3-.2h.2l.3-.3h.4l.3-.2h.3l.2-.3h.3l.2-.2h.5l.3-.3h.2l.5-.5h.3l.2-.2h.3l.2-.3h.3l.4-.5h.3l.5-.5h.3l.2-.2h.3l.7-.8h.3l1-1h.2l.5-.5h.3l1-1h.2l1-1h.3l2.2-2.2v-.3l1.3-1.2v-.3l1-1v-.2l.7-.8v-.2l1-1v-.3l.8-.7v-.3l.4-.5v-.2l.3-.3v-.2l.8-.8v-.2l.4-.5v-.3l.3-.2v-.3l.3-.2v-.3l.2-.2v-.3l.5-.5v-.2l.3-.3v-.2l.2-.3v-.2l.3-.3v-.2l.2-.3v-.2l.3-.3v-.2l.2-.3v-.2l.3-.3v-.2l.2-.3v-.2l.3-.3v-.2l.2-.3v-.5l.3-.2v-.3l.2-.2v-.3l.3-.2v-.3l.2-.2v-.3l.3-.2v-.5l.2-.3v-.5l.3-.2v-.3l.2-.2v-.8l.3-.2v-.5l.2-.3v-.2l.3-.3v-.2l.2-.3v-.5l.3-.2v-.8l.2-.2v-.5l.3-.3v-.5l.2-.2v-.8l.3-.2v-1l.2-.3v-.5l.3-.2v-.3l.2-.2v-.8l.3-.2V508l.2-.2v-.6l.3-.2v-.5l.2-.2v-.8l.3-.2V504l.2-.2v-.6l.3-.2v-.5l.2-.2v-1l.3-.3v-1l.2-.2v-.8l.3-.2v-.3l.2-.2v-.6l.3-.2v-1.2l.2-.3v-.7l.3-.3v-.7l.2-.3v-.7l.3-.3v-1.2l.2-.3v-.5l.3-.2v-.6l.2-.2v-.7l.3-.3v-1l.2-.2v-1l.3-.3v-.7l.2-.3v-.7l.3-.3v-1l.2-.2v-.8l.3-.2v-.8l.2-.2v-.8l.3-.2v-.8l.2-.2v-1l.3-.3v-.7l.2-.3v-.7l.3-.3v-.7l.2-.3v-1l.3-.2v-1l.2-.3v-1l.3-.2v-.8l.2-.2v-.8l.3-.2v-.8l.2-.2v-1l.3-.3v-1l.2-.2v-1l.3-.3v-1.2l.2-.3v-1.2l.3-.3v-1l.2-.2v-.8l.3-.2V458l.2-.2v-1.6l.3-.2v-1.2l.2-.3v-1.2l.3-.3v-1.5l.2-.2V449l.3-.2v-1.6l.2-.2v-1.5l.3-.2v-1.6l.2-.2v-3l.3-.2v-2l.2-.3v-1.5l.3-.2v-1.8l.2-.2v-2.8l.3-.2v-3l.2-.3v-2.2l.3-.3v-2.7l.2-.3v-6.2l.3-.3v-5.7l-.3-.3v-3.5l-.2-.2v-1l-.3-.3v-1.2l-.2-.3v-1l-.3-.2v-1l-.2-.3v-.5l-.3-.2v-.3l-.2-.2v-.8l-.3-.2v-.6l-.2-.2v-.5l-.3-.2v-.6l-.2-.2v-.2l-.3-.3v-.2l-.2-.3v-.5l-.3-.2v-.3l-.2-.2v-.3l-.3-.2v-.3l-.2-.2v-.3l-.3-.2v-.3l-.2-.2v-.3l-.3-.2v-.3l-.5-.5v-.2l-.5-.6v-.2l-1-1v-.2l-.5-.6v-.2l-1-1v-.2l-4.2-4.3h-.3l-1-1h-.2l-.8-.7h-.2l-.6-.6h-.2l-.5-.4h-.2l-.3-.3h-.2l-.3-.2h-.2l-.6-.6h-.2l-.2-.2h-.3l-.2-.2h-.3l-.2-.3h-.3l-.2-.2h-.3l-.2-.3h-.3l-.2-.2h-.6l-.2-.3h-.5l-.2-.2h-.3l-.2-.3h-.3l-.2-.2h-.3l-.2-.3h-.6l-.2-.2h-.7l-.3-.3h-.5l-.2-.2h-.8l-.2-.3h-1l-.3-.2h-.5l-.2-.3h-.6l-.2-.2h-.7l-.3-.3h-1.7l-.3-.2h-1.5l-.2-.3h-1.6l-.2-.2h-10.7zM436 404l.3-.2h4.2l.3.2h.7l.3.3h.2l.3.2h.4l.3.3h.3l.2.2h.3l.2.3h.3l.4.4h.3l1.8 1.8v.3l.4.4v.3l.6.5v.3l.2.2v.3l.3.2v.3l.2.2v.8l.3.2v.5l.2.3v1.4l.3.3v8.3l-.3.2v2.3l-.2.2v1.3l-.3.2v1.3l-.2.2v1.8l-.3.2v1.3l-.2.2v.8l-.3.2v1l-.2.3v1.4l-.3.3v2l-.2.3v1.4l-.3.3v1l-.2.3v2l-.3.2v1.3l-.2.2v1l-.3.3v.7l-.2.3v1l-.3.2v1.5l-.2.3v1.2l-.3.3v1l-.2.2v1.3l-.3.2v1.5l-.2.3v1l-.3.2v1l-.2.3v1l-.3.2v1.8l-.2.2v1l-.3.3v.7l-.2.3v1l-.3.2v1.5l-.2.3v1.4l-.3.3v1l-.2.3v1.2l-.3.3v1.2l-.2.3v.7l-.3.3v1l-.2.2v.8l-.3.2v1.3l-.2.2v1.5l-.3.3v1l-.2.2v1l-.3.3v1.4l-.2.3v1l-.3.3v1l-.2.2v.8l-.3.2v1l-.2.3v1.4l-.3.3v1l-.2.3v1l-.3.2v1l-.2.3v1l-.3.2v.8l-.2.2v.8l-.3.2v1l-.2.3v1l-.3.2v.8l-.2.2v.5l-.3.3v1l-.2.2v.8l-.3.2v1l-.2.3v.4l-.3.3v.5l-.2.3v.7l-.3.3v.4l-.2.3v.5l-.3.3v.7l-.2.3v.4l-.3.3v.8l-.2.2v.8l-.3.2v.3l-.2.2v.5l-.3.3v.2l-.2.3v.2l-.3.3v.2l-.2.3v.2l-.3.3v.2l-.5.5v.3l-.7.7v.3l-2 2h-.3l-.7.7h-.3l-.2.3h-.3l-.5.5h-.2l-.3.2h-.2l-.3.3h-.5l-.2.2h-.8l-.2.3h-.6l-.2.2h-.7l-.3.3h-5.2l-.3-.3h-.7l-.3-.2h-.7l-.3-.3h-.5l-.2-.2h-.6l-.2-.3h-.5l-.2-.2h-.3l-.2-.3h-.3l-.2-.2h-.3l-2-2v-.3l-.5-.5v-.2l-.2-.3v-.2l-.3-.3v-.5l-.2-.2v-.5l-.3-.3v-.7l-.2-.3v-1.7l-.3-.3v-2.2l-.2-.3v-3.5l.2-.2v-2.8l.3-.2v-3.6l.2-.2v-2l.3-.2V496l.2-.2V494l.3-.2V491l.2-.2v-1.3l.3-.2v-1l.2-.3v-1l.3-.2v-1.6l.2-.2v-2l.3-.2v-1.3l.2-.2v-1l.3-.3v-1.7l.2-.3v-1.5l.3-.2v-1l.2-.3v-.7l.3-.3v-1.2l.2-.3v-1.7l.3-.3v-1l.2-.2v-1l.3-.3v-1.2l.2-.3v-1.2l.3-.3v-1.2l.2-.3v-1l.3-.2v-1l.2-.3v-1l.3-.2v-1l.2-.3v-1l.3-.2v-1l.2-.3v-1l.3-.2v-1.3l.2-.2v-1l.3-.3v-1l.2-.2v-.8l.3-.2v-.8l.2-.2v-1.3l.3-.2v-.8l.2-.2v-1l.3-.3v-1l.2-.2v-1.3l.3-.2v-.8l.2-.2v-.6l.3-.2v-.7l.2-.3v-1.2l.3-.3v-1l.2-.2v-.8l.3-.2v-.8l.2-.2v-1.3l.3-.2v-1.6l.2-.2v-.7l.3-.3v-.5l.2-.2v-1.3l.3-.2v-1l.2-.3v-.2l.3-.3v-.5l.2-.2v-.6l.3-.2v-1l.2-.2v-.6l.3-.2v-.5l.2-.2v-.8l.3-.2v-.8l.2-.2v-.3l.3-.2v-.3l.2-.2v-.6l.3-.2v-.5l.2-.2v-.3l.3-.2v-.3l.2-.2v-.6l.3-.2v-.2l.2-.3v-.2l.5-.6v-.2l.3-.2v-.6l.4-.4v-.3l.3-.2v-.3l.5-.5v-.2l.5-.6v-.2l1.3-1.2v-.3l2-2h.2l1.3-1.2h.2l.5-.6h.3l.2-.2h.3l.2-.2h.3l.2-.3h.3l.2-.2h.5l.3-.3h.4l.3-.2h.5l.3-.3h.4zm279-164.7-.2.2h-1.3l-.2.3h-.5l-.3.2h-.5l-.2.3h-.3l-.2.2h-.3l-.2.3h-.3l-2.2 2.2v.3l-.5.4v.3l-.3.3v.2l-.2.3v.2l-.3.3v.7l-.2.3v1l-.3.2v6.8l-.2.2V272l.2.3v1.4l.3.3v1l.2.3v.4l.3.3v.3l.5.4v.3l3 3h.2l.5.5h.5l.3.3h.2l.3.2h.5l.2.3h.5l.3.2h1l.2.3h3.5l.3-.3h1l.2-.2h.5l.3-.3h.2l.3-.2h.5l.2-.3h.3l.2-.2h.3l.2-.3h.3l.5-.5h.2l1.5-1.5v-.2l.5-.6v-.2l.5-.5v-.2l.3-.3v-.2l.2-.3v-.5l.3-.2V273l.2-.2v-25l-.2-.3v-1.2l-.3-.3v-.5l-.2-.2v-.3l-.3-.2v-.3l-.2-.2v-.3l-.3-.2v-.3l-.5-.5v-.2l-2-2h-.2l-.3-.3h-.2l-.3-.2h-.2l-.3-.3h-.5l-.2-.2h-.8l-.2-.3h-1.5l-.3-.2h-3.7zm1 5 .3-.3h2l.2.3h.8l.2.2h.3l.7.8h.3l.2.2v.3l.5.4v.3l.3.3v.2l.2.3v.7l.3.3v23.2l-.3.3v1.4l-.2.3v.5l-.3.3v.2l-.2.3v.2l-1.3 1.3h-.2l-.5.4h-.5l-.3.3h-.7l-.3.3h-.5l-.2-.3h-1l-.3-.2h-.5l-.7-.8h-.3l-.5-.5v-.2l-.7-.8v-.2l-.3-.3v-.5l-.2-.2v-24.8l.2-.2v-.8l.3-.2v-.3l.2-.2v-.3l.5-.5v-.2l.8-.8h.2l.5-.5h.3l.2-.2h.3zm-38.2-5-.3.2h-.5l-.5.5v.5l-.2.3v39.4l.2.3v.3l.5.4h1.3l.2.3h2.8l.2.3h3.5l.3-.3h1.5l.2-.2h.8l.2-.3h.8l.2-.2h.8l.2-.3h.5l.3-.2h.2l.3-.3h.2l.3-.2h.2l.3-.3h.2l1-1h.3l.5-.5v-.2l.7-.8v-.2l.3-.3v-.2l.2-.3v-.2l.5-.6v-.2l.3-.2v-.6l.2-.2v-1l.3-.2V270l.2-.2v-1l-.2-.3v-1.7l-.3-.3v-.7l-.2-.3v-.2l-.3-.3v-.2l-.2-.3v-.2l-.3-.3v-.2l-.2-.3v-.2l-1.5-1.6h-.3l-.5-.4h-.2l-.3-.3h-.2l-.5-.5v-.2l-.3-.3v-1l.3-.2h.2l2.5-2.6v-.2l.5-.5v-.2l.3-.3v-.5l.2-.2v-.6l.3-.2v-.7l.2-.3v-1l.3-.2v-2.6l-.3-.2v-1l-.2-.2v-1l-.3-.3v-.7l-.2-.3v-.2l-.3-.3v-.2l-.2-.3v-.2l-.3-.3v-.2l-1.7-1.8h-.3l-.5-.5h-.2l-.3-.2h-.5l-.2-.3h-.5l-.3-.2h-.7l-.3-.3h-.7l-.3-.2h-1.5l-.2-.3h-3l-.3-.2h-5zm4.5 22.7.2-.2h3.5l.3.2h.2l.3.3h.2l.3.2h.2l.3.3h.2l2 2v.2l.5.5v.5l.3.3v1l.2.2v4l-.2.3v1l-.3.2v.5l-.2.3v.2l-2.3 2.3h-.2l-.5.4h-.3l-.2.3h-.5l-.3.3h-3l-.2-.3h-.5l-1-1v-.5l-.3-.2v-7.8l.3-.2V263l.2-.2v-.3l.5-.5zm.2-17.7.3-.3h3.7l.3.3h.2l.3.2h.2l2 2v.3l.3.2v.3l.2.2v.5l.3.3v1.4l.2.3v2l-.2.3v1.2l-.3.3v.4l-.2.3v.3l-.3.2v.3l-1.5 1.4h-.2l-.5.6h-.3l-.2.2h-.5l-.3.3h-.5l-.2.2h-2.5l-.3-.2h-.2l-.8-.8v-.5l-.2-.2v-8.6l.2-.2v-2.2l.3-.3v-.2l.5-.6zm-41.2-5-.3.2h-.5l-.2.3v.2l-.3.3v.7l-.2.3v39.2l.2.3v.2l.3.3v.2h.5l.2.3h3.3l.2-.3h.5l.3-.2v-.3l.2-.2v-.3l.3-.2V266l-.3-.2v-11.3l.3-.2v-.3l.2-.2h1l1 1v.2l.3.3v.4l.2.3v.3l.3.2v.3l.2.2v.5l.3.3v.2l.2.3v.2l.5.5v.3l.3.2v.3l.2.2v.3l.3.2v.3l.5.4v.3l.2.3v.2l.8.8v.2h.2l.3.3h.2l.3-.3h.2v-.2l.5-.6v-.2l.3-.2v-.6l.2-.2v-.5l.3-.2v-.6l.2-.2v-.2l.3-.3v-.2l.2-.3v-.5l.3-.2v-.6l.2-.2v-.2l.3-.3v-.2l.2-.3v-.5l.3-.2v-.6l.2-.2v-.2l.3-.3v-.2l1-1h.5l.5.4v.3l.2.3v27l.3.2v.3l.5.4h3.2l.3-.2h.2l.5-.5v-1l.3-.2v-18.6l-.3-.2v-1.2l.3-.3v-4l-.3-.2V240l-.5-.5h-.2l-.3-.2h-3l-.2.2h-.5l-1.3 1.3v.2l-.2.3v.2l-.3.3v.4l-.2.3v.5l-.3.3v.2l-.2.3v.4l-.3.3v.3l-.2.2v.5l-.3.3v.2l-.2.3v.4l-.3.3v.3l-.2.2v.5l-.3.3v.2l-.2.3v.4l-.3.3v.5l-.2.3v.4l-.3.3v.3l-.2.2v.3l-.3.2v.3l-.7.7h-1l-1-1v-.2l-.3-.3v-.2l-.2-.3v-.2l-.3-.3v-.2l-.2-.3v-.2l-.3-.3v-.2l-.2-.3v-.2l-.3-.3v-.5l-.2-.2v-.3l-.3-.2v-.3l-.2-.2v-.3l-.3-.2v-.3l-.2-.2v-.3l-.3-.2v-.6l-.2-.2v-.2l-.3-.3v-.2l-.2-.3v-.2l-.3-.3v-.5l-.2-.2v-.3l-.3-.2v-.3l-.2-.2v-.3l-.8-.7v-.3l-.2-.2h-.3l-.2-.3h-.3l-.2-.2h-2.8zm-24.8 0-.2.2h-.5l-.3.3h-.2v.2l-.5.5v.3l-.3.2v.8l-.2.2v1.3l-.3.2v1l-.2.3v.4l-.3.3v.8l-.2.2v1.3l-.3.2v1.3l-.2.2v1l-.3.3v1l-.2.2v1.3l-.3.2v1l-.2.3v.7l-.3.3v.7l-.2.3v1l-.3.2v1l-.2.3v1l-.3.2v.8l-.2.2v1l-.3.3v1.2l-.2.3v1l-.3.2v.8l-.2.2v1.3l-.3.2v1l-.2.3v.7l-.3.3v.4l-.2.3v.8l-.3.2v1.5l-.2.3v1l-.3.2v.8l-.2.2v.8l-.3.2v1.3l-.2.2v1l-.3.3v1.2l.5.5h.3l.2.3h3.5l.3-.3h.5l.5-.5v-.5l.2-.2v-.8l.3-.2v-.8l.2-.2v-.3l.3-.2v-.6l.2-.2v-.7l.3-.3v-.2l.2-.3v-.2l.3-.3h.2l.3-.2h.2l.3-.3h6.7l.3.3h.2l.3.2h.2l.3.3v.2l.2.3v.2l.3.3v.4l.2.3v1l.3.3v.7l.2.3v.7l.3.3v.2l.2.3v.2l.3.3v.2h.5l.2.3h3.3l.2-.3h.8l.2-.2v-.3l.3-.2v-1l-.3-.3v-1.2l-.2-.3v-1l-.3-.2v-.8l-.2-.2v-.8l-.3-.2v-1l-.2-.3v-1l-.3-.2v-.8l-.2-.2v-1l-.3-.3v-1.2l-.2-.3v-1.2l-.3-.3v-1l-.2-.2v-1l-.3-.3v-.7l-.2-.3v-1l-.3-.2v-.8l-.2-.2v-.8l-.3-.2v-1l-.2-.3v-1l-.3-.2v-1.3l-.2-.2V255l-.3-.2v-.8l-.2-.2v-.8l-.3-.2v-1l-.2-.3v-1l-.3-.2v-.8l-.2-.2v-.8l-.3-.2v-1l-.2-.3v-1.2l-.3-.3v-.7l-.2-.3v-.7l-.3-.3v-1l-.2-.2v-1l-.3-.3v-.5l-.7-.7h-.3l-.2-.3h-.5l-.3-.2h-3.7zM618 250l.3-.2h.7l.8.7v.3l.2.2v1l.3.3v2.2l.2.3v1.2l.3.3v.7l.2.3v.7l.3.3v1.2l.2.3v1.4l.3.3v1.5l.2.3v1l.3.2v1.3l.2.2v1.3l.3.2v1.3l-.3.2v.3l-.5.4h-.2l-.3.3h-1l-.2.3h-2.8l-.2-.3H616l-.2-.2h-.3l-.7-.8v-2.2l.2-.3v-1l.3-.2v-.6l.2-.2V263l.3-.2V261l.2-.2v-1l.3-.3v-.7l.2-.3v-1.2l.3-.3v-2l.2-.2v-1l.3-.3v-1l.2-.2V251l.3-.2v-.6zm-30.5-10.7-.2.2h-1.5l-.3.3h-.7l-.3.2h-.5l-.2.3h-.5l-.3.2h-.2l-.3.3h-.2l-.5.4h-.3l-1.2 1.3v.3l-.5.4v.3l-.5.5v.3l-.3.2v.5l-.2.3v.4l-.3.3v1l-.2.3v4.2l.2.3v.7l.3.3v.7l.2.3v.4l.3.3v.3l.2.2v.3l.3.2v.3l.2.2v.3l.5.4v.3l.5.5v.3l3.3 3.2h.2l.5.5h.3l.2.3h.3l.5.4h.2l.5.6h.3l1.2 1.2h.3l2.5 2.5v.3l.5.4v.3l.2.3v.2l.3.3v.4l.2.3v1.3l.3.2v1.3l-.3.2v1.3l-.2.2v.5l-.3.3v.2l-.2.3v.2l-1 1h-.3l-.2.3h-.3l-.2.2h-.3l-.2.3h-2.5l-.3-.3h-.2l-.3-.2h-.2l-1.5-1.6v-.2l-.3-.2v-.3l-.2-.2v-.6l-.3-.2v-1l-.2-.2v-1.3l-.3-.2v-.3l-.5-.5h-.2l-.3-.2-.2.2h-1l-.3.3h-.7l-.3.2h-.7l-.3.3h-.2l-.5.4v2.3l.2.3v.7l.3.3v.4l.2.3v.3l.3.2v.5l.2.3v.2l.3.3v.2l.5.5v.3l2 2h.2l.5.4h.3l.5.6h.2l.3.2h.2l.3.3h.2l.3.2h.5l.2.3h5l.3-.3h.7l.3-.2h.2l.3-.3h.2l.3-.2h.2l.3-.3h.2l.3-.2h.2l2.5-2.6v-.2l.5-.5v-.2l.3-.3v-.2l.2-.3v-.5l.3-.2v-.6l.2-.2v-.5l.3-.2v-1l.2-.3v-2.7l-.2-.3v-.7l-.3-.3v-.5l-.2-.2v-.6l-.3-.2v-.5l-.2-.2v-.3l-.3-.2v-.3l-.5-.5v-.2l-.7-.8v-.2L594 262h-.2l-1-1h-.3l-1-1h-.2l-.8-.7h-.2l-.8-.8h-.2l-3.5-3.5v-.2l-.5-.6v-.2l-.3-.2v-.3l-.2-.2v-.6l-.3-.2v-.5l-.2-.2v-4l.2-.3v-.5l.3-.2v-.3l.2-.2v-.3l1-1h.3l.5-.5h.2l.3-.2h.5l.2-.3h.5l.3.3h.7l.3.2h.2l.5.5h.3l1 1v.3l.2.2v.3l.3.2v.8l.2.2v1.3l.3.2v1l.2.3v.2l.3.3h3.5l.2-.3h.3v-.2l.5-.6v-3.4l-.3-.3v-1l-.2-.2v-.3l-.3-.2v-.3l-.2-.2v-.3l-.3-.2v-.3l-.5-.5v-.2l-2-2h-.2l-.3-.3h-.2l-.3-.2h-.2l-.3-.3h-.5l-.2-.2h-.5l-.3-.3h-1l-.2-.2h-2zm-52.7 0-.3.2h-.2l-.3.3v.2l-.2.3v1l-.3.2v1.3l.3.2v1l.2.3v.2h.3l.2.3h.8l.2.2h5.3l1 1v1l.2.3v3.7l-.2.3v29.2l.2.3v.4l.5.6h4.3l.2-.3h.3l.5-.5v-.2l.2-.3v-33l.3-.2-.3-.3.3-.2v-.8l1-1h1l.2-.2h1.3l.2.2h2.8l.2-.2h.5l.5-.6v-.4l.3-.3v-3l-.3-.2v-.3l-.5-.5h-.2l-.3-.2h-20zm-20.5 0-.3.2h-.2l-.8.8v.4l-.2.3v.8l-.3.2v1l-.2.3v1.2l-.3.3v.7l-.2.3v.7l-.3.3v1l-.2.2v1l-.3.3v1.2l-.2.3v1l-.3.2v1l-.2.3v1.2l-.3.3v1l-.2.2v.8l-.3.2v.8l-.2.2v1.3l-.3.2v1l-.2.3v1l-.3.2v1l-.2.3v1l-.3.2v1l-.2.3v1l-.3.2v1l-.2.3v1l-.3.2v.8l-.2.2v.8l-.3.2v.5l-.2.3v1l-.3.2v1.5l-.2.3v.7l-.3.3v1l-.2.2v1.3l-.3.2v2.3l.3.2h.2l.3.3h3.4l.3-.3h.5l.5-.5v-.5l.3-.2v-.8l.2-.2v-.6l.3-.2v-.5l.2-.2v-.8l.3-.2v-.8l.2-.2v-.3l.3-.2h.2l.3-.3h.2l.3-.2h3.7l.3-.3h2.7l.3.3h.5l.2.2h.3l.5.5v.3l.2.2v.3l.3.2v.8l.2.2v.8l.3.2v1l.2.3v.7l.3.3v.2l.5.5h.2l.3.3h3.7l.3-.3h.2l.5-.5v-1.7l-.2-.3v-1.2l-.3-.3v-1l-.2-.2v-.8l-.3-.2v-.6l-.2-.2v-.7l-.3-.3V272l-.2-.2v-1l-.3-.3v-.7l-.2-.3v-.7l-.3-.3v-1.2l-.2-.3v-1l-.3-.2v-1l-.2-.3v-1l-.3-.2v-1l-.2-.3v-.7l-.3-.3v-.7l-.2-.3v-1l-.3-.2v-1.3l-.2-.2V256l-.3-.2v-1l-.2-.3v-1l-.3-.2v-1l-.2-.3v-1l-.3-.2v-.8l-.2-.2v-.8l-.3-.2v-.8l-.2-.2v-1l-.3-.3v-1.2l-.2-.3v-1.2l-.3-.3v-.7l-.2-.3v-1l-.3-.2v-.8l-.5-.5v-.2l-.2-.3h-.3l-.2-.2h-5.3zm2 10.2.2-.2h.8l.7.7v.3l.3.2v1l.2.3v1.4l.3.3v1.3l.2.2v1l.3.3v1l.2.2v1.3l.3.2v1.3l.2.2v1.3l.3.2v1l.2.3v1l.3.2v1.3l.2.2v1l.3.3v1.7l-1 1h-2l-.3.3h-2.2l-.3-.3H514l-.2-.2h-.3l-.2-.3v-.2l-.3-.3v-.5l-.2-.2.2-.3v-1l.3-.2v-.8l.2-.2v-1.3l.3-.2v-1.8l.2-.2V261l.3-.2v-.8l.2-.2v-1l.3-.3v-2l.2-.2V255l.3-.2v-1l.2-.3v-1l.3-.2v-2l.2-.3v-.2zm-38.5-10.2-.3.2h-.2l-.8.8v32l-.2.2v6l.2.3v2l.3.2v.3l.2.2h.5l.3.3h9.4l.3-.3h.8l.2-.2h.5l.3-.3h.4l.3-.2h.8l.2-.3h.3l.2-.2h.3l.2-.3h.3l.2-.2h.3l.4-.6h.3l.8-.7v-.2l1-1v-.3l.4-.5v-.2l.3-.3v-.5l.3-.2v-.3l.2-.2v-.6l.3-.2v-1.7l.2-.3v-4.7l-.2-.3v-1.2l-.3-.3v-.5l-.2-.2v-.3l-.3-.2v-.3l-.5-.5v-.2l-1.7-1.8h-.3l-.5-.5h-.2l-.8-.7v-1l2.8-2.8v-.2l.4-.6v-.2l.3-.2v-.3l.3-.2v-.6l.2-.2v-.7l.3-.3v-.7l.2-.3v-4l-.2-.2v-1l-.3-.3v-.7l-.2-.3v-.5l-.3-.2v-.3l-.2-.2v-.3l-.3-.2v-.3l-.5-.5v-.2l-1-1h-.2l-.8-.8h-.2l-.3-.2h-.5l-.2-.3h-.8l-.2-.2h-.8l-.2-.3h-.8l-.2-.2h-1.6l-.2-.3h-2.7l-.3-.2H478zm4.7 22.7.3-.2h3.4l.3.2h.5l.3.3h.2l.3.2h.2l.5.5h.3l.7.8v.2l.8.8v.2l.2.3v.2l.3.3v.2l.2.3v.7l.3.3v4.7l-.3.3v.4l-.2.3v.3l-.3.2v.3l-.2.2v.3l-.8.7v.3l-.2.2h-.3l-.7.8h-.3l-.2.2h-.3l-.5.5h-.7l-.3.3h-2.5l-.2-.3h-.8l-.7-.7v-.3l-.3-.2v-12.6l.3-.2v-.2l.2-.3v-.2l.3-.3zm.3-17.7.2-.3h3.5l.3.3h.4l.3.2h.3l2 2v.5l.2.3v.2l.3.3v1.2l.2.3v3.4l-.2.3v.8l-.3.2v.5l-.2.3v.2l-.8.8v.2l-.7.8h-.3l-.2.2h-.3l-.2.3h-.3l-.2.2h-.6l-.2.3h-2.7l-.3-.3h-.5l-.7-.7v-.3l-.3-.2v-10.8l.3-.2v-.3l.7-.7zm-41.6-5-.2.2h-.2l-.6.5v.5l-.2.3v39.4l.3.3v.5l.4.5h.8l.3.3h2l.2-.3h.8l.2-.2h.3l.2-.3v-.2l.3-.3v-26.2l.7-.8h.3l1.2 1.3v.2l.3.3v.2l.2.3v.2l.3.3v.2l.2.3v.4l.3.3v.3l.2.2v.3l.3.2v.3l.4.4v.3l.3.3v.2l.5.5v.3l.3.2v.3l.4.4v.3l.6.5v.3h.2l.3.2h.4l.6-.5v-.2l.2-.3v-.2l.3-.3v-.2l.2-.3v-.2l.3-.3v-.2l.2-.3v-.5l.3-.2v-.6l.2-.2v-.2l.3-.3v-.5l.2-.2v-.6l.3-.2v-.2l.2-.3v-.2l.3-.3v-.5l.2-.2v-.3l.3-.2v-.3l.2-.2v-.3l.5-.5h.3l.2-.2h.3l.2.2h.3l.2.3v.2l.3.3v5.2l.2.3v4.4l-.2.3v11.8l-.3.2v3.8l.3.2v1l.7.8h2.8l.2-.3h.5l.5-.5v-.5l.3-.2v-30l-.3-.3v-9.7l-.7-.8h-.3l-.2-.2h-2.8l-.2.2h-.3l-.2.3h-.3l-.5.4v.3l-.2.3v.2l-.3.3v.2l-.2.3v.2l-.3.3v.4l-.2.3v.3l-.3.2v.3l-.2.2v.3l-.3.2v.5l-.2.3v.4l-.3.3v.3l-.2.2v.5l-.3.3v.4l-.2.3v.5l-.3.3v.2l-.2.3v.4l-.3.3v.3l-.2.2v.5l-.3.3v.2l-.2.3v.2l-1 1h-1l-.8-.7v-.3l-.5-.5v-.5l-.2-.2v-.3l-.3-.2v-.3l-.2-.2v-.3l-.3-.2v-.3l-.2-.2v-.3l-.3-.2v-.3l-.2-.2v-.3l-.3-.2v-.3l-.2-.2v-.3l-.3-.2v-.6l-.2-.2v-.2l-.3-.3v-.2l-.2-.3v-.2l-.3-.3v-.5l-.2-.2v-.3l-.3-.2v-.3l-.2-.2v-.3l-.3-.2v-.3l-.2-.2v-.3l-.3-.2v-.3l-1-1h-.5l-.2-.2h-2.8zm-25 0-.2.2h-1.2l-.3.3h-.7l-.3.2h-.2l-.3.3h-.5l-.2.2h-.3l-.5.5h-.2l-1.8 1.8v.2l-.5.5v.3l-.2.2v.3l-.3.2v.3l-.2.2v.5l-.3.3v.4l-.2.3v1.3l-.3.2v17l-.2.3v6.4l.2.3v1.8l.3.2v.5l.2.3v.4l.3.3v.5l.2.3v.2l.5.5v.3l2.5 2.4h.3l.4.6h.3l.3.2h.2l.3.3h.2l.3.2h.4l.3.3h.8l.2.2h5.8l.2-.2h.5l.3-.3h.4l.3-.2h.3l.2-.3h.3l.2-.2h.3l.2-.3h.3l.4-.5h.3l1.8-1.7v-.3l.4-.5v-.2l.6-.6v-.2l.2-.2v-.3l.3-.2v-1l.2-.3v-1.7l.3-.3v-23.7l-.3-.3v-1l-.2-.2v-1l-.3-.3v-.5l-.2-.2v-.3l-.6-.5v-.2l-.2-.3v-.2l-.5-.6v-.2l-1.5-1.5h-.2l-.3-.2h-.2l-.3-.3h-.2l-.3-.2h-.2l-.3-.3h-.5l-.2-.2h-.8l-.2-.3h-1.6l-.2-.2h-3.5zm1 4.7.3-.2h2l.3.2h.4l.3.3h.3l1.7 1.7v.3l.3.2v.3l.2.2v.5l.3.3v1.2l.2.3v10.4l-.2.3v12.5l-.3.3v.7l-.2.3v.2l-.3.3v.2l-.5.5v.3l-.5.4h-.2l-.6.6h-.2l-.2.2h-.3l-.2.3h-.8l-.2.2h-.8l-.2-.2h-.8l-.2-.3h-.6l-.4-.5h-.3l-1.5-1.5v-.2l-.2-.3v-.2l-.3-.3v-.2l-.2-.3v-.7l-.3-.3v-22l.3-.2v-1.6l.2-.2v-.5l.3-.2v-.6l.4-.4v-.3l1.6-1.5h.2l.3-.2h.2l.3-.3h.2zm-32.2-4.7-.2.2h-.8l-.2.3h-.6l-.2.2h-.5l-.2.3h-.6l-.2.2h-.2l-.3.3h-.2l-2 2v.2l-.6.5v.3l-.2.2v.5l-.2.3v.2l-.3.3v.4l-.2.3v1l-.3.3v1l-.2.2v1.3l-.3.2v14.3l-.2.2v5l.2.3v1.7l.3.3v1l.2.2v1l.3.3v1l.2.2v.5l.3.3v.2l.2.3v.2l.3.3v.2l1.2 1.3v.2l.5.5h.3l.7.8h.3l.2.2h.3l.2.3h.5l.3.2h.2l.3.3h.4l.3.2h1.3l.2.3h4.5l.3-.3h.7l.3-.2h.4l.3-.3h.3l.2-.2h.3l.2-.3h.3l.2-.2h.3l.4-.6h.3l2-2v-.2l.3-.2v-.3l.2-.2v-.3l.3-.2v-.3l.2-.2v-.3l.3-.2v-.6l.2-.2v-.2l.3-.3v-1l.2-.2v-1.6l-.2-.2v-.2l-.3-.3h-.2l-.3-.2h-1l-.2-.3h-1.8l-.2.3H393l-.2.2h-.3v.3l-.2.2v1l-.3.3v1l-.2.2v.8l-.6.4v.3l-1 1h-.2l-.2.3h-.3l-.2.2h-.3l-.2.3h-2.3l-.2-.3h-.6l-.2-.2h-.2l-.3-.3h-.2l-.3-.2h-.2l-1.3-1.3v-.2l-.2-.3v-.5l-.3-.2v-.8l-.2-.2v-22.6l.2-.2v-1.7l.3-.3v-.2l.2-.3v-.2l.5-.6v-.2l1-1h.3l.2-.2h.3l.4-.6h.6l.2-.2h1.8l.2.3h.5l.3.2h.2l.5.5h.3l1 1v.3l.4.4v.6l.3.2v.5l.3.3v1l.2.2v.5l.3.3v.2l.2.3h.3l.2.2h3.8l.2-.2h.3l.2-.3h.3v-.2l.2-.3v-2l-.2-.2v-1l-.3-.3v-.5l-.2-.2v-.6l-.3-.2v-.2l-.2-.3v-.2l-.6-.6v-.2l-1-1v-.2h-.2l-1.5-1.6h-.2l-.3-.2h-.2l-.3-.2h-.5l-.2-.3h-.6l-.2-.2h-.7l-.3-.3H389l-.2-.2h-3.6zm3.8-100.6-.3.3h-9.2l-.3.3h-.5l-.5.4h-.2l-8.6 8.6h-.2l-.5.4v.3l-1.5 1.5h-.2l-.6.5v.3l-2.2 2.2h-.2v.3L339.5 178v.3l-.5.4h-.2l-1 1v.3L228.3 289.5v.3l-.6.4h-.2l-1.2 1.3v.3l-.3.2h-.2l-4.8 4.8v.2l-.2.3h-.3l-6 6v.2l-1 1h-.2l-1 1v.3l-1.6 1.4h-.2l-.2.3v.3l-6.8 6.7h-.2l-.6.5v.3l-1.2 1.2h-.2l-.8.8v.2l-1 1h-.2l-1.3 1.3v.2l-1.7 1.8h-.3v.2l-2 2h-.2v.3L125 393v.3l-.7.7v.3l-.3.2v.5l-.2.3v1.7l-.3.3v140.5l.3.2v2.8l-.3.2v2.8l.3.2v.8l-.3.2v1.8l.3.2v6.8l-.3.2v.8l.3.2v.8l-.3.2v53l.3.3v26.5l-.3.2v4.5l.3.3v.7l.2.3v.2l.5.5H240l.3.3h95l.2.2h1.5l.3-.2h.2l-.5-.5h-.5l-.2-.3h-.8l-.2-.2h-.8l-.2-.3h-.3l-.2-.2h-.6l-.2-.3h-.7l-.3-.2h-.5l-.2-.3h-.8l-.2-.2h-.8l-.2-.3h-.6l-.2-.2h-.5l-.2-.3h-.3l-.2-.2h-.8l-.2-.3h-.6l-.2-.2h-.5l-.2-.3h-.8l-.2-.2h-.8l-.2-.3h-.6l-.2-.2h-.5l-.2-.3h-.8l-.2-.2h-.8l-.2-.3h-1l-.3-.2h-.5l-.2-.3h-.6l-.2-.2h-.7l-.3-.3h-1l-.2-.2h-.6l-.2-.3h-.7l-.3-.2h-.7l-.3-.3h-.7l-.3-.2h-.5l-.2-.3h-.6l-.2-.2h-.7l-.3-.3h-1l-.2-.2h-.6l-.2-.3h-.7l-.3-.2h-.7l-.3-.3h-.7l-.3-.2h-.5l-.2-.3h-.6l-.2-.2h-.5l-.2-.3h-1l-.3-.2h-.7l-.3-.3h-.5l-.2-.2h-1l-.3-.3h-.7l-.3-.2h-.5l-.2-.3h-.6l-.2-.2h-.7l-.3-.3h-1l-.2-.2h-.6l-.2-.3h-.5l-.2-.2h-.6l-.2-.3h-1l-.2-.2h-.8l-.2-.3h-.8l-.2-.2h-.8l-.2-.3h-.8l-.2-.2h-.8l-.2-.3h-.6l-.2-.2h-.5l-.2-.3h-.8l-.2-.2h-.8l-.2-.3h-.8l-.2-.2h-.8l-.2-.3h-.8l-.2-.2h-.8l-.2-.3h-.6l-.2-.2h-.5l-.2-.3h-.8l-.2-.2h-.8l-.2-.3h-.8l-.2-.2h-.8l-.2-.3h-.6l-.2-.2h-.7l-.3-.3h-.7l-.3-.2h-.5l-.2-.3h-.8l-.2-.2h-.8l-.2-.3h-.6l-.2-.2h-.7l-.3-.3h-.7l-.3-.2h-.7l-.3-.3h-.7l-.3-.2h-.7l-.3-.3h-.5l-.2-.2h-.6l-.2-.3h-.7l-.3-.2h-.5l-.2-.3h-1l-.3-.2h-.5l-.2-.3h-.8l-.2-.2h-1l-.3-.3h-.5l-.2-.2h-.8l-.2-.3h-.6l-.2-.2h-.7l-.3-.3h-.7l-.3-.2h-.5l-.2-.3h-.8l-.2-.2h-1l-.3-.3h-.7l-.3-.2h-.5l-.2-.3h-.8l-.2-.2h-.8l-.2-.3h-.8l-.2-.2h-.6l-.2-.3h-.5l-.2-.2h-.8l-.2-.3h-.8l-.2-.2h-.8l-.2-.3h-.8l-.2-.2h-1l-.3-.3h-.7l-.3-.2h-.5l-.2-.3h-.3l-.2-.2h-.8l-.2-.3h-.8l-.2-.2h-.8l-.2-.3h-.6l-.2-.2h-.7l-.3-.3h-1l-.2-.2h-.6l-.2-.3h-.7l-.3-.2h-.5l-.2-.3h-1l-.3-.2h-.5l-.2-.3h-.6l-.2-.2h-.7l-.3-.3h-1l-.2-.2h-.6l-.2-.3h-.5l-.2-.2h-.8l-.2-.3h-.8l-.2-.2h-.8l-.2-.3h-.3l-.2-.2h-.6l-.2-.3h-1l-.2-.2h-.8l-.2-.3h-.6l-.2-.2h-.7l-.3-.3h-.7l-.3-.2h-.7l-.3-.3h-.5l-.2-.2h-.6l-.2-.3h-.7l-.3-.2h-1l-.2-.3h-.6l-.2-.2h-.5l-.2-.3h-1l-.3-.2h-.7l-.3-.3h-.5l-.2-.2h-.6l-.2-.3h-.7l-.3-.2h-.7l-.3-.3h-.5l-.2-.2h-.8l-.2-.3h-.8l-.2-.2h-.8l-.2-.3h-.6l-.2-.2h-.7l-.3-.3h-.7l-.3-.2h-.5l-.2-.3h-.6l-.2-.2h-.5l-.2-.3h-.8l-.2-.2h-.6l-.2-.3h-.2l-1-1v-2l-.3-.2V594l.3-.2v-10.5l-.3-.3v-19.5l.3-.2V561l-.3-.2v-2.3l.3-.2v-109l-.3-.3v-32.2l.3-.3v-2l.2-.2v-.6l.3-.2v-.2l.7-.8v-.2l178-178v-.3l.5-.5h.3l18.2-18.2v-.3l.5-.5h.3l.7-.7v-.3l15.8-15.7h.2l.5-.6h.3l.2-.2h.5l.3-.2h297.7l.3.2h.5l.2.3h.3l17 17h.2l.8.7v.3l.7.7h.3l1.7 1.8v.2l.3.3h.2l.5.4v.3l.3.3h.2l.5.4v.3l1.3 1.3h.2l.5.4v.3l1.5 1.5h.3l.2.3v.2l2 2h.3l1 1v.3h.2l19.5 19.4v.3h.3l50.2 50.3h.3l.5.4v.3l1 1h.2l1 1v.3l1 1h.3l.2.2v.3l.3.2h.2l.8.8v.2l1.2 1.3h.3l.2.2v.3l6.5 6.4h.3l.2.3v.3l1.3 1.2h.2l18.8 18.8h.2l26.3 26.2h.2l25.3 25.3h.2l.5.4v.3l.3.3h.2l10 10h.3l.2.2h.5l.3.3h73.2l.3-.3h.2v-.7l-.5-.6v-.2L819.8 241.3v-.3l-.3-.2h-.2L718.5 140h-.2l-.5-.5h-.3l-.2-.2h-.5l-.3-.3h-3l-.2-.2H389z" fill="#fff" fill-rule="evenodd"/></svg>